<svg width="427" height="300" viewBox="0 0 427 300" fill="none" xmlns="http://www.w3.org/2000/svg">
<path d="M280.704 20.9824C279.302 24.5384 278.478 28.2955 278.263 32.1116H268.417V31.837C268.417 31.5848 268.469 31.3325 268.499 31.0951C268.619 29.7872 268.837 28.4901 269.152 27.2147C269.659 25.1161 270.393 23.0786 271.34 21.1382C271.356 21.0892 271.388 21.0474 271.432 21.0201C271.475 20.9929 271.527 20.9822 271.578 20.9898H280.719L280.704 20.9824Z" fill="#EBEBEB"/>
<path d="M280.407 45.86H271.34C271.293 45.8655 271.246 45.8544 271.207 45.8286C271.167 45.8028 271.138 45.764 271.125 45.719C270.09 43.5396 269.342 41.2352 268.899 38.8635C268.68 37.7187 268.531 36.5616 268.454 35.3986C268.458 35.3591 268.458 35.3193 268.454 35.2799V35.0054H268.602H278.062C278.24 35.0054 278.233 35.0054 278.247 35.1834C278.307 35.9773 278.359 36.7712 278.433 37.5577C278.558 38.8057 278.761 40.0447 279.041 41.2674C279.366 42.78 279.797 44.2676 280.332 45.719C280.377 45.7561 280.384 45.8006 280.407 45.86Z" fill="#EBEBEB"/>
<path d="M318.513 48.7241L318.438 48.8577C317.672 50.0339 316.813 51.1478 315.871 52.189C314.736 53.4708 313.473 54.6342 312.102 55.6613C309.466 57.6792 306.477 59.1888 303.288 60.1129C302.05 60.4711 300.788 60.7414 299.512 60.9217L299.141 60.981H298.925L298.718 60.8475L298.955 60.6768C301.717 58.7946 304.134 56.4504 306.1 53.7471C307.211 52.2186 308.189 50.5977 309.023 48.9022C309.038 48.8566 309.069 48.8176 309.109 48.7919C309.15 48.7662 309.198 48.7554 309.246 48.7612H318.513V48.7241Z" fill="#EBEBEB"/>
<path d="M309.446 32.1051H296.722V20.9759H306.657C306.701 20.9707 306.745 20.9813 306.782 21.0058C306.818 21.0302 306.845 21.067 306.857 21.1095C307.771 23.2018 308.45 25.3891 308.883 27.6311C309.109 28.7962 309.273 29.9727 309.372 31.1554C309.395 31.467 309.424 31.7638 309.446 32.1051Z" fill="#EBEBEB"/>
<path d="M309.372 35.0791C309.372 35.3388 309.372 35.5985 309.335 35.821C309.276 36.4443 309.238 37.0601 309.149 37.6833C309.031 38.5291 308.897 39.3824 308.726 40.2282C308.349 42.0863 307.798 43.9047 307.079 45.6592C307.069 45.7104 307.039 45.7556 306.996 45.7858C306.954 45.8161 306.901 45.8292 306.849 45.8224H296.611V35.0791H309.372Z" fill="#EBEBEB"/>
<path d="M293.851 21.0495V32.1787H281.423C281.423 31.8893 281.423 31.6148 281.475 31.3403C281.542 30.717 281.586 30.0938 281.69 29.478C281.839 28.5283 282.002 27.586 282.202 26.6512C282.619 24.7739 283.221 22.9423 283.998 21.1831C284.013 21.1394 284.042 21.1023 284.081 21.078C284.121 21.0536 284.167 21.0436 284.213 21.0495H293.858H293.851Z" fill="#EBEBEB"/>
<path d="M293.865 35.2203C293.865 38.7174 293.865 42.2094 293.865 45.6966V45.8598H283.931C283.882 45.8653 283.833 45.8534 283.792 45.8262C283.752 45.7991 283.722 45.7584 283.708 45.7114C282.955 43.9043 282.388 42.0248 282.017 40.1023C281.831 39.1081 281.69 38.1139 281.564 37.1346C281.482 36.4816 281.468 35.8213 281.423 35.161C281.423 35.161 281.423 35.161 281.423 35.0942H293.702C293.836 35.0645 293.865 35.1016 293.865 35.2203Z" fill="#EBEBEB"/>
<path d="M322.95 32.1854H312.518C312.307 28.3454 311.486 24.5635 310.084 20.982H319.804C319.853 20.9743 319.903 20.9843 319.945 21.0101C319.987 21.036 320.019 21.076 320.034 21.123C321.147 23.3129 321.955 25.6443 322.438 28.0528C322.694 29.346 322.865 30.6546 322.95 31.9702V32.1854Z" fill="#EBEBEB"/>
<path d="M322.957 34.9898C322.957 35.242 322.957 35.4869 322.92 35.7317C322.716 38.8611 321.962 41.9302 320.694 44.7982L320.249 45.7628C320.239 45.7954 320.218 45.8235 320.189 45.8424C320.161 45.8613 320.127 45.8699 320.093 45.8666H310.374C310.492 45.5328 310.611 45.2137 310.722 44.8873C311.691 42.0091 312.275 39.0153 312.458 35.984C312.458 35.6872 312.495 35.3904 312.51 35.0862C312.51 35.012 312.51 34.9675 312.614 34.9749C312.646 34.9787 312.679 34.9787 312.711 34.9749L322.957 34.9898Z" fill="#EBEBEB"/>
<path d="M318.231 18.1401V18.1846H308.957C308.911 18.1902 308.865 18.1809 308.825 18.1582C308.784 18.1355 308.753 18.1005 308.734 18.0585C307.519 15.6357 305.998 13.379 304.208 11.3439C303.148 10.1716 301.984 9.09872 300.728 8.13868C300.105 7.66384 299.46 7.21125 298.829 6.75125L298.725 6.67705L298.851 6.58802C298.851 6.52866 298.851 6.46931 298.785 6.3877C302.679 6.83646 306.432 8.11832 309.788 10.1462C313.143 12.1741 316.023 14.9004 318.231 18.1401Z" fill="#EBEBEB"/>
<path d="M292.085 60.8177C291.998 60.844 291.908 60.859 291.817 60.8622C290.817 60.732 289.826 60.5387 288.85 60.2835C287.022 59.8184 285.249 59.1619 283.56 58.3248C281.624 57.3618 279.811 56.1712 278.158 54.7783C276.981 53.7982 275.896 52.7129 274.916 51.536C274.181 50.6455 273.505 49.7087 272.891 48.7314V48.6498H281.534C281.58 48.647 281.626 48.6592 281.665 48.6846C281.704 48.71 281.733 48.7472 281.749 48.7908C283.406 52.2189 285.677 55.3145 288.449 57.9241C289.549 58.9558 290.727 59.9009 291.973 60.7509L292.085 60.8177Z" fill="#EBEBEB"/>
<path d="M291.974 6.66301C291.581 6.94495 291.128 7.27141 290.683 7.60528C289.204 8.76253 287.829 10.046 286.573 11.4411C284.867 13.2951 283.412 15.3656 282.247 17.5993C282.173 17.7402 282.113 17.8886 282.032 18.0222C282.018 18.0454 281.998 18.065 281.975 18.0792C281.952 18.0934 281.925 18.1018 281.898 18.1038H273.129C275.261 14.9537 278.032 12.2874 281.263 10.278C284.493 8.26867 288.109 6.96116 291.877 6.44043L291.818 6.55172L291.974 6.66301Z" fill="#EBEBEB"/>
<path d="M305.648 48.7305C304.482 50.7896 303.072 52.7003 301.448 54.4212C300.013 55.9623 298.402 57.3294 296.648 58.4944V48.7305H305.648Z" fill="#EBEBEB"/>
<path d="M293.851 48.7383V58.3094C290.257 55.8434 287.295 52.5642 285.207 48.7383H293.851Z" fill="#EBEBEB"/>
<path d="M305.366 18.0965H296.722V8.97803C298.497 10.1332 300.126 11.4984 301.574 13.0439C303.008 14.5941 304.278 16.2872 305.366 18.0965Z" fill="#EBEBEB"/>
<path d="M293.851 9.25928V18.1626H285.549C287.582 14.5869 290.426 11.5376 293.851 9.25928Z" fill="#EBEBEB"/>
<path d="M237.56 59.511L236.633 58.6281L236.959 58.272L237.894 59.1623L237.56 59.511Z" fill="#A6A6A6"/>
<path d="M233.323 110.572V110.09C234.192 110.09 235.052 110.016 235.883 109.934L235.935 110.416C235.074 110.498 234.199 110.55 233.323 110.572ZM230.074 110.52C229.221 110.468 228.352 110.394 227.484 110.29L227.536 109.815C228.397 109.912 229.258 109.993 230.096 110.038L230.074 110.52ZM239.133 109.919L239.036 109.444C239.882 109.274 240.721 109.051 241.514 108.806L241.663 109.266C240.847 109.519 240.001 109.741 239.133 109.919ZM224.294 109.808C223.463 109.652 222.61 109.474 221.757 109.274L221.868 108.799C222.714 108.999 223.559 109.177 224.383 109.333L224.294 109.808ZM218.618 108.443C217.802 108.198 216.971 107.938 216.147 107.656L216.296 107.196C217.119 107.478 217.943 107.738 218.752 107.975L218.618 108.443ZM244.72 108.087L244.512 107.649C245.278 107.286 246.021 106.878 246.738 106.425L246.997 106.833C246.249 107.297 245.474 107.716 244.675 108.087H244.72ZM213.098 106.543C212.304 106.232 211.495 105.905 210.702 105.557L210.895 105.119C211.688 105.46 212.49 105.787 213.276 106.098L213.098 106.543ZM249.616 104.852L249.29 104.496C249.921 103.926 250.506 103.308 251.041 102.648L251.419 102.952C250.858 103.629 250.248 104.264 249.594 104.852H249.616ZM207.749 104.214C207.007 103.85 206.213 103.472 205.426 103.056L205.649 102.633C206.428 103.034 207.192 103.375 207.956 103.783L207.749 104.214ZM202.555 101.52C201.813 101.098 201.071 100.66 200.329 100.222L200.574 99.8066C201.316 100.244 202.058 100.675 202.8 101.105L202.555 101.52ZM253.2 100.237L252.777 100.007C253.181 99.2609 253.526 98.4844 253.808 97.6846L254.268 97.8404C253.977 98.6654 253.622 99.4666 253.207 100.237H253.2ZM197.554 98.5082C196.812 98.0333 196.108 97.5585 195.403 97.0688L195.677 96.6756C196.38 97.1702 197.092 97.645 197.814 98.1001L197.554 98.5082ZM192.761 95.1917C192.071 94.6797 191.381 94.1604 190.699 93.6336L190.996 93.2552C191.671 93.7746 192.361 94.2939 193.051 94.8059L192.761 95.1917ZM255.085 94.6797L254.61 94.5981C254.753 93.7589 254.842 92.9113 254.877 92.0607H255.359C255.327 92.9382 255.24 93.813 255.099 94.6797H255.085ZM188.184 91.6155C187.516 91.0665 186.848 90.51 186.195 89.9461L186.514 89.5752C187.167 90.139 187.82 90.6955 188.488 91.2371L188.184 91.6155ZM254.788 88.8703C254.706 88.0393 254.587 87.1861 254.424 86.3329L254.892 86.2438C255.062 87.1119 255.188 87.98 255.27 88.8258L254.788 88.8703ZM183.769 87.8093C183.131 87.2306 182.5 86.6445 181.87 86.0583L182.196 85.7096C182.827 86.2958 183.458 86.8745 184.096 87.4458L183.769 87.8093ZM179.533 83.8399C178.909 83.239 178.294 82.638 177.685 82.0296L178.019 81.6809L179.867 83.4912L179.533 83.8399ZM253.645 83.2241C253.4 82.4302 253.118 81.6141 252.799 80.8054L253.252 80.6273C253.571 81.4509 253.86 82.2819 254.105 83.0831L253.645 83.2241ZM175.4 79.737L173.597 77.8821L173.946 77.5483C174.549 78.1715 175.15 78.7873 175.749 79.3957L175.4 79.737ZM251.523 77.8599C251.16 77.1179 250.781 76.3315 250.344 75.5747L250.766 75.3373C251.189 76.0792 251.59 76.8805 251.961 77.6447L251.523 77.8599ZM171.394 75.5598L169.605 73.6901L169.954 73.3563L171.742 75.226L171.394 75.5598ZM248.734 72.8147C248.281 72.0727 247.799 71.3827 247.302 70.6704L247.695 70.3959C248.199 71.1379 248.689 71.8798 249.142 72.555L248.734 72.8147ZM167.38 71.3308L165.599 69.4611L165.948 69.1272L167.728 71.0043L167.38 71.3308ZM245.358 68.1182C244.846 67.4504 244.297 66.7827 243.74 66.1149L244.111 65.8033C244.675 66.471 245.224 67.1536 245.744 67.8214L245.358 68.1182ZM163.343 67.1759L161.548 65.321L161.889 64.9797L163.692 66.842L163.343 67.1759ZM241.618 63.6888C241.047 63.0655 240.461 62.4423 239.853 61.8191L240.223 61.4407C240.842 62.0688 241.435 62.6995 242.004 63.3326L241.618 63.6888ZM159.263 63.0136L157.445 61.1884L157.779 60.8471L159.612 62.6723L159.263 63.0136ZM155.138 58.9255C154.529 58.3319 153.906 57.7384 153.275 57.1374L153.609 56.7887C154.24 57.3822 154.863 57.9832 155.479 58.5768L155.138 58.9255ZM150.923 54.9338C150.293 54.3551 149.662 53.7764 149.017 53.1977L149.336 52.8341L151.25 54.5777L150.923 54.9338ZM146.62 51.0535C145.975 50.4896 145.322 49.9331 144.661 49.3767L144.973 49.0057C145.641 49.5696 146.294 50.126 146.939 50.6899L146.62 51.0535ZM142.168 47.3438L140.15 45.7263L140.455 45.3479C141.137 45.8895 141.805 46.4312 142.473 46.9728L142.168 47.3438ZM137.606 43.7527C136.93 43.2334 136.24 42.7214 135.543 42.2021L135.825 41.8163C136.53 42.3356 137.22 42.8476 137.895 43.3669L137.606 43.7527ZM132.924 40.3175C132.234 39.8279 131.529 39.3308 130.809 38.8337L131.084 38.433C131.826 38.9301 132.508 39.4198 133.206 39.9169L132.924 40.3175ZM128.131 37.0456C127.426 36.5707 126.699 36.1033 125.972 35.6359L126.232 35.2352C126.973 35.7027 127.715 36.1701 128.398 36.6375L128.131 37.0456ZM123.234 33.9294C122.492 33.4843 121.75 33.0391 121.008 32.6013L121.253 32.1859C121.995 32.6236 122.737 33.0688 123.479 33.5214L123.234 33.9294ZM118.233 30.9616L116.008 29.7078L116.238 29.2774L118.501 30.5462L118.233 30.9616ZM113.144 28.1719C112.402 27.7713 111.66 27.3781 110.859 26.9774L111.074 26.5471L113.374 27.7416L113.144 28.1719ZM107.95 25.5306C107.208 25.1597 106.414 24.7887 105.628 24.4103L105.836 23.9725C106.622 24.3435 107.401 24.7145 108.165 25.1003L107.95 25.5306ZM102.742 23.008L100.39 21.9396L100.59 21.5019C101.384 21.858 102.17 22.2438 102.942 22.5628L102.742 23.008ZM97.4294 20.6338L95.0477 19.6322L95.2332 19.187L97.6223 20.1886L97.4294 20.6338Z" fill="#A6A6A6"/>
<path d="M91.9094 18.4079L90.7074 17.9331L90.8855 17.4805L92.0874 17.9553L91.9094 18.4079Z" fill="#A6A6A6"/>
<path d="M93.4378 9.17032L97.6965 20.8633L88.7561 13.8817L54.5897 1.49121L93.4378 9.17032Z" fill="#DBDBDB"/>
<path d="M87.6133 16.6053L97.6963 20.864L88.7559 13.8823L87.6133 16.6053Z" fill="#C7C7C7"/>
<path d="M88.7561 13.8817L54.5897 1.49121L82.6129 28.8392L88.7561 13.8817Z" fill="#EBEBEB"/>
<path d="M93.4378 9.17042L107.639 0L54.5897 1.49131L93.4378 9.17042Z" fill="#EBEBEB"/>
<path d="M109.642 252.121L109.486 252.061L108.655 251.735L108.825 251.29L109.664 251.623L111.148 252.202L110.977 252.647L109.642 252.121ZM105.732 250.54C104.938 250.214 104.166 249.887 103.402 249.553L103.595 249.123L105.91 250.11L105.732 250.54ZM113.96 253.753L114.123 253.308L116.497 254.154L116.341 254.599L113.96 253.753ZM119.324 255.63L119.472 255.185L121.869 255.979L121.72 256.431L119.324 255.63ZM100.523 248.27C99.7441 247.914 98.9799 247.528 98.2379 247.194L98.4383 246.771C99.1802 247.127 99.9221 247.513 100.716 247.84L100.523 248.27ZM124.725 257.396L124.866 256.943L127.27 257.685L127.137 258.138L124.725 257.396ZM95.4037 245.784C94.6618 245.399 93.9198 245.005 93.1779 244.612L93.4079 244.189C94.1301 244.585 94.872 244.978 95.6337 245.369L95.4037 245.784ZM130.156 259.058L130.29 258.598L132.709 259.34L132.575 259.792L130.156 259.058ZM90.4179 243.061C89.6759 242.631 88.934 242.193 88.2514 241.756L88.5037 241.355C89.2011 241.793 89.9208 242.223 90.6553 242.653L90.4179 243.061ZM135.61 260.594L135.743 260.141L138.169 260.809L138.043 261.269L135.61 260.594ZM141.092 262.077L141.211 261.625L141.849 261.788L143.652 262.248L143.541 262.708L141.731 262.248L141.092 262.077ZM85.6027 240.005C84.8978 239.522 84.2004 239.033 83.5327 238.521L83.8072 238.142C84.4749 238.625 85.1649 239.114 85.8623 239.589L85.6027 240.005ZM146.62 263.413L146.724 262.953C147.54 263.131 148.364 263.294 149.195 263.457L149.105 263.917C148.297 263.769 147.481 263.598 146.642 263.42L146.62 263.413ZM152.214 264.474L152.296 264.007C153.119 264.147 153.95 264.281 154.781 264.4L154.715 264.867C153.898 264.734 153.067 264.622 152.236 264.481L152.214 264.474ZM81.0249 236.621C80.3497 236.072 79.6968 235.523 79.0884 234.982L79.4075 234.633C80.0084 235.167 80.6539 235.709 81.3217 236.25L81.0249 236.621ZM157.868 265.298L157.92 264.83C158.758 264.934 159.589 265.023 160.42 265.112L160.376 265.587C159.537 265.476 158.699 265.401 157.868 265.298ZM76.8107 232.83C76.2097 232.222 75.6236 231.606 75.0745 230.983L75.4306 230.671C75.9723 231.279 76.551 231.895 77.1445 232.504L76.8107 232.83ZM163.514 265.898V265.424C164.352 265.498 165.183 265.565 166.022 265.617V266.091C165.191 266.017 164.352 265.958 163.514 265.884V265.898ZM169.175 266.277V265.802L171.69 265.913V266.381L169.175 266.277ZM73.0713 228.519C72.5593 227.837 72.0697 227.139 71.5874 226.442L71.9806 226.182C72.4258 226.872 72.908 227.562 73.42 228.23L73.0713 228.519ZM174.866 266.448V265.98H177.381V266.455L174.866 266.448ZM70.0071 223.704C69.6138 222.962 69.2651 222.183 68.9164 221.412L69.3541 221.226C69.6806 221.968 70.0442 222.747 70.43 223.452L70.0071 223.704ZM180.556 266.462V265.988C181.402 265.988 182.241 265.988 183.079 265.943V266.418C182.241 266.433 181.395 266.455 180.549 266.462H180.556ZM186.24 266.314V265.839L188.762 265.72V266.195L186.24 266.314ZM67.8109 218.436C67.5573 217.618 67.376 216.779 67.2693 215.929L67.7441 215.877C67.8442 216.697 68.018 217.506 68.2635 218.295L67.8109 218.436ZM191.908 266.01V265.535L194.423 265.357V265.824L191.908 266.01ZM197.577 265.557L197.532 265.09L200.047 264.845L200.092 265.312C199.271 265.421 198.432 265.503 197.577 265.557ZM67.3509 212.716C67.457 212.148 67.6185 211.591 67.8332 211.054C67.934 210.801 68.0479 210.553 68.1745 210.312L68.5974 210.52C68.4787 210.757 68.3674 211.01 68.2709 211.262C68.0694 211.776 67.9155 212.307 67.8109 212.85L67.3509 212.716ZM203.208 264.971L203.149 264.504L205.656 264.199L205.716 264.667L203.208 264.971ZM208.847 264.229L208.78 263.762C209.64 263.643 210.471 263.524 211.28 263.398L211.347 263.866C210.546 263.992 209.737 264.133 208.876 264.251L208.847 264.229ZM70.3854 207.975L70.0367 207.656C70.619 207.028 71.2545 206.453 71.9361 205.935L72.218 206.313C71.5602 206.813 70.9471 207.369 70.3854 207.975ZM214.5 263.406L214.426 262.938L216.912 262.515L216.993 262.983L214.5 263.406ZM220.109 262.419L220.02 261.951C220.911 261.781 221.742 261.625 222.498 261.469L222.595 261.937L220.109 262.419ZM74.8371 204.636L74.6145 204.228C75.3596 203.819 76.1247 203.448 76.9071 203.115L77.0926 203.553C76.2987 203.894 75.5123 204.25 74.8371 204.636ZM225.689 261.291L225.585 260.824C227.187 260.475 228.048 260.26 228.056 260.252L228.167 260.712C228.167 260.712 227.299 260.927 225.689 261.284V261.291ZM80.0233 202.41L79.8749 201.965C80.6168 201.706 81.4626 201.461 82.301 201.223L82.4272 201.683C81.5962 201.936 80.7875 202.18 80.0233 202.41ZM85.484 200.927L85.3875 200.467C86.1962 200.296 87.0346 200.14 87.8804 199.999L87.9546 200.467C87.1162 200.652 86.2853 200.808 85.484 200.978V200.927ZM91.0708 200.014L91.0114 199.547C91.8498 199.443 92.6956 199.354 93.534 199.279L93.5711 199.754C92.7401 199.873 91.9018 199.962 91.093 200.066L91.0708 200.014ZM96.7095 199.547V199.072C97.5628 199.035 98.416 199.012 99.247 199.005V199.48C98.4086 199.539 97.5628 199.561 96.7095 199.598V199.547Z" fill="#A6A6A6"/>
<path d="M235.52 251.6L228.115 260.474L238.124 257.194L271.897 257.128L235.52 251.6Z" fill="#DBDBDB"/>
<path d="M238.265 259.932L228.115 260.474L238.124 257.194L238.265 259.932Z" fill="#C7C7C7"/>
<path d="M238.124 257.195L271.897 257.128L238.777 272.204L238.124 257.195Z" fill="#EBEBEB"/>
<path d="M235.519 251.601L225.993 239.106L271.897 257.128L235.519 251.601Z" fill="#EBEBEB"/>
<path d="M22.3077 274.786L60.8294 274.608L99.3584 274.541L176.416 274.415L253.475 274.541L292.004 274.601L330.525 274.786L292.004 274.964L253.475 275.031L176.416 275.157L99.3584 275.031L60.8294 274.964L22.3077 274.786Z" fill="#263238"/>
<path d="M302.45 40.6221H50.3832V235.79H302.45V40.6221Z" fill="#C7C7C7"/>
<path d="M302.45 235.79H50.3832V34.3818H247.599L302.45 83.3649V235.79Z" fill="#EBEBEB"/>
<path d="M122.529 69.275V89.3816H118.026V60.8242H121.565L137.888 81.4206V60.8613H142.436V89.3816H138.726L122.529 69.275Z" fill="#263238"/>
<path d="M168.471 85.4048V89.3816H148.883V60.8242H168.107V64.8085H153.417V72.9698H166.171V76.6795H153.417V85.4048H168.471Z" fill="#263238"/>
<path d="M183.272 60.9429H187.546L191.048 70.6401L194.587 60.9429H198.809L193.942 73.6598L198.208 84.1583L207.111 60.8242H212.03L200.241 89.3816H196.383L191.07 76.5905L185.721 89.3816H181.863L170.073 60.8242H174.977L183.881 84.1583L188.147 73.6598L183.272 60.9429Z" fill="#263238"/>
<path d="M231.632 67.5395C231.279 67.1815 230.885 66.8653 230.46 66.5972C229.893 66.2296 229.295 65.9142 228.672 65.655C227.954 65.3387 227.209 65.0903 226.446 64.913C225.623 64.7257 224.782 64.6311 223.938 64.6311C222.029 64.6311 220.626 64.9798 219.731 65.6772C219.291 66.0159 218.938 66.4556 218.703 66.9592C218.468 67.4628 218.357 68.0155 218.381 68.5708C218.356 69.1707 218.502 69.7653 218.804 70.2847C219.14 70.7715 219.588 71.1709 220.11 71.4495C220.814 71.8301 221.561 72.1264 222.335 72.3324C223.221 72.5946 224.252 72.8691 225.429 73.156C226.759 73.4702 228.07 73.8616 229.354 74.3283C230.417 74.6978 231.417 75.2255 232.322 75.8938C233.116 76.4918 233.757 77.2699 234.192 78.1641C234.663 79.1915 234.892 80.3136 234.859 81.4435C234.894 82.7409 234.612 84.0272 234.036 85.1903C233.512 86.209 232.748 87.0849 231.81 87.7426C230.804 88.4276 229.68 88.9183 228.494 89.1894C227.162 89.5065 225.797 89.6609 224.428 89.6494C222.292 89.655 220.169 89.3245 218.136 88.67C216.154 88.0342 214.296 87.0603 212.646 85.7913L214.693 81.9258C215.149 82.3634 215.646 82.756 216.177 83.098C216.906 83.559 217.673 83.9561 218.47 84.2852C219.394 84.6602 220.343 84.9677 221.312 85.2052C222.35 85.4661 223.417 85.5958 224.487 85.591C225.915 85.6729 227.336 85.3515 228.59 84.6635C229.054 84.3785 229.433 83.9741 229.688 83.4925C229.942 83.0109 230.063 82.4699 230.037 81.9258C230.058 81.2794 229.868 80.6438 229.495 80.1154C229.078 79.5856 228.548 79.1548 227.944 78.8541C227.163 78.4454 226.343 78.1149 225.496 77.8673C224.524 77.5706 223.426 77.259 222.194 76.9399C220.936 76.6171 219.697 76.2207 218.485 75.7528C217.533 75.4023 216.644 74.9013 215.851 74.2689C215.176 73.7037 214.634 72.997 214.263 72.1989C213.878 71.2893 213.693 70.3075 213.721 69.3202C213.7 68.0385 213.975 66.7692 214.523 65.6104C215.052 64.5459 215.813 63.6131 216.749 62.8801C217.722 62.114 218.836 61.5468 220.028 61.2107C221.361 60.8234 222.743 60.6334 224.131 60.6468C225.955 60.6275 227.767 60.9392 229.48 61.5669C231.013 62.1339 232.461 62.9077 233.784 63.8669L231.632 67.5395Z" fill="#263238"/>
<path d="M267.654 52.285H61.6534V46.854H261.57L267.654 52.285Z" fill="#C7C7C7"/>
<path d="M259.967 45.4289H61.6534V44.3457H258.765L259.967 45.4289Z" fill="#C7C7C7"/>
<path d="M271.126 55.3869H61.6534V54.311H269.916L271.126 55.3869Z" fill="#C7C7C7"/>
<path d="M291.188 96.0884H61.6534V101.512H291.188V96.0884Z" fill="#C7C7C7"/>
<path d="M291.188 93.5884H61.6534V94.6642H291.188V93.5884Z" fill="#C7C7C7"/>
<path d="M291.188 103.554H61.6534V104.622H291.188V103.554Z" fill="#C7C7C7"/>
<path d="M102.052 60.8242H61.6459V89.389H102.052V60.8242Z" fill="#C7C7C7"/>
<path d="M291.18 73.2962V89.3815H250.782V60.8315H277.224L291.18 73.2962Z" fill="#C7C7C7"/>
<path d="M128.91 196.333H223.923V123.326L128.91 123.326V196.333Z" fill="#263238"/>
<path opacity="0.2" d="M139.119 140.443C138.77 142.223 139.002 144.069 139.781 145.707C140.56 147.346 141.845 148.691 143.446 149.544C145.047 150.397 146.88 150.713 148.674 150.446C150.469 150.178 152.13 149.341 153.413 148.059C154.695 146.776 155.532 145.115 155.8 143.32C156.067 141.526 155.751 139.693 154.898 138.092C154.045 136.491 152.7 135.206 151.061 134.427C149.423 133.648 147.577 133.416 145.797 133.765C144.147 134.091 142.632 134.9 141.443 136.089C140.254 137.278 139.445 138.793 139.119 140.443Z" fill="black"/>
<path opacity="0.2" d="M155.257 180.923H223.923L189.586 142.424L155.257 180.923Z" fill="black"/>
<path d="M128.91 180.96H185.602L157.252 155.882L128.91 180.96Z" fill="#263238"/>
<path opacity="0.3" d="M128.91 180.96H185.602L157.252 155.882L128.91 180.96Z" fill="black"/>
<path d="M223.923 180.923H128.91V196.333H223.923V180.923Z" fill="#263238"/>
<path opacity="0.3" d="M223.923 180.923H128.91V196.333H223.923V180.923Z" fill="black"/>
<path d="M204.974 111.246H128.91V113.791H204.974V111.246Z" fill="#A6A6A6"/>
<path d="M183.324 116.767H128.91V119.312H183.324V116.767Z" fill="#A6A6A6"/>
<path d="M118.026 111.292H61.6534V113.837H118.026V111.292Z" fill="#A6A6A6"/>
<path d="M117.982 123.319H61.6088V125.864H117.982V123.319Z" fill="#DBDBDB"/>
<path d="M117.982 128.067H61.6088V130.612H117.982V128.067Z" fill="#DBDBDB"/>
<path d="M117.982 132.816H61.6088V135.361H117.982V132.816Z" fill="#DBDBDB"/>
<path d="M117.982 137.563H61.6088V140.108H117.982V137.563Z" fill="#DBDBDB"/>
<path d="M117.982 142.312H61.6088V144.857H117.982V142.312Z" fill="#DBDBDB"/>
<path d="M117.982 147.054H61.6088V149.599H117.982V147.054Z" fill="#DBDBDB"/>
<path d="M117.982 151.802H61.6088V154.347H117.982V151.802Z" fill="#DBDBDB"/>
<path d="M117.982 156.55H61.6088V159.095H117.982V156.55Z" fill="#DBDBDB"/>
<path d="M94.6252 161.298H61.6088V163.843H94.6252V161.298Z" fill="#DBDBDB"/>
<path d="M117.982 170.795H61.6088V173.34H117.982V170.795Z" fill="#DBDBDB"/>
<path d="M117.982 175.544H61.6088V178.089H117.982V175.544Z" fill="#DBDBDB"/>
<path d="M117.982 180.285H61.6088V182.83H117.982V180.285Z" fill="#DBDBDB"/>
<path d="M117.982 185.033H61.6088V187.578H117.982V185.033Z" fill="#DBDBDB"/>
<path d="M94.6252 189.781H61.6088V192.326H94.6252V189.781Z" fill="#DBDBDB"/>
<path d="M101.985 116.812H61.6534V119.357H101.985V116.812Z" fill="#A6A6A6"/>
<path d="M291.181 111.292H234.808V113.837H291.181V111.292Z" fill="#A6A6A6"/>
<path d="M291.136 123.319H234.763V125.864H291.136V123.319Z" fill="#DBDBDB"/>
<path d="M291.136 128.067H234.763V130.612H291.136V128.067Z" fill="#DBDBDB"/>
<path d="M291.136 132.816H234.763V135.361H291.136V132.816Z" fill="#DBDBDB"/>
<path d="M268.002 137.563H234.763V140.108H268.002V137.563Z" fill="#DBDBDB"/>
<path d="M291.136 147.054H234.763V149.599H291.136V147.054Z" fill="#DBDBDB"/>
<path d="M291.136 151.802H234.763V154.347H291.136V151.802Z" fill="#DBDBDB"/>
<path d="M291.136 156.55H234.763V159.095H291.136V156.55Z" fill="#DBDBDB"/>
<path d="M291.136 161.298H234.763V163.843H291.136V161.298Z" fill="#DBDBDB"/>
<path d="M268.002 166.046H234.763V168.591H268.002V166.046Z" fill="#DBDBDB"/>
<path d="M291.136 175.544H234.763V178.089H291.136V175.544Z" fill="#DBDBDB"/>
<path d="M291.136 180.285H234.763V182.83H291.136V180.285Z" fill="#DBDBDB"/>
<path d="M291.136 185.033H234.763V187.578H291.136V185.033Z" fill="#DBDBDB"/>
<path d="M291.136 189.781H234.763V192.326H291.136V189.781Z" fill="#DBDBDB"/>
<path d="M268.002 194.531H234.763V197.076H268.002V194.531Z" fill="#DBDBDB"/>
<path d="M275.14 116.812H234.808V119.357H275.14V116.812Z" fill="#A6A6A6"/>
<path d="M118.026 204.353H61.6534V206.898H118.026V204.353Z" fill="#A6A6A6"/>
<path d="M117.982 216.389H61.6088V218.934H117.982V216.389Z" fill="#DBDBDB"/>
<path d="M117.982 221.136H61.6088V223.681H117.982V221.136Z" fill="#DBDBDB"/>
<path d="M117.982 225.877H61.6088V228.422H117.982V225.877Z" fill="#DBDBDB"/>
<path d="M117.982 230.625H61.6088V233.169H117.982V230.625Z" fill="#DBDBDB"/>
<path d="M101.985 209.88H61.6534V212.425H101.985V209.88Z" fill="#A6A6A6"/>
<path d="M223.923 204.353H129.118V206.898H223.923V204.353Z" fill="#A6A6A6"/>
<path d="M223.849 216.389H129.044V218.934H223.849V216.389Z" fill="#DBDBDB"/>
<path d="M223.849 221.136H129.044V223.681H223.849V221.136Z" fill="#DBDBDB"/>
<path d="M223.849 225.877H129.044V228.422H223.849V225.877Z" fill="#DBDBDB"/>
<path d="M223.849 230.625H129.044V233.169H223.849V230.625Z" fill="#DBDBDB"/>
<path d="M196.939 209.88H129.118V212.425H196.939V209.88Z" fill="#A6A6A6"/>
<path d="M291.181 204.353H234.808V206.898H291.181V204.353Z" fill="#A6A6A6"/>
<path d="M291.136 216.389H234.763V218.934H291.136V216.389Z" fill="#DBDBDB"/>
<path d="M291.136 221.136H234.763V223.681H291.136V221.136Z" fill="#DBDBDB"/>
<path d="M291.136 225.877H234.763V228.422H291.136V225.877Z" fill="#DBDBDB"/>
<path d="M268.002 230.625H234.763V233.169H268.002V230.625Z" fill="#DBDBDB"/>
<path d="M275.14 209.88H234.808V212.425H275.14V209.88Z" fill="#A6A6A6"/>
<path d="M247.599 34.3818L249.001 83.632L302.451 83.3649L247.599 34.3818Z" fill="#DBDBDB"/>
<path d="M291.172 231.501C291.172 231.501 279.368 228.822 272.869 222.864C266.369 216.907 262.786 206.223 262.786 206.223C267.271 207.081 271.693 208.241 276.022 209.695C277.641 211.367 278.992 213.279 280.028 215.363C280.126 214.015 280.126 212.661 280.028 211.312C281.539 211.967 282.952 212.826 284.228 213.865C289.651 218.561 291.172 231.501 291.172 231.501Z" fill="#263238"/>
<path d="M270.183 211.409C268.573 210.296 266.933 209.228 265.338 208.1C265.317 208.087 265.303 208.067 265.297 208.043C265.292 208.02 265.296 207.995 265.308 207.974C265.321 207.953 265.342 207.939 265.365 207.933C265.389 207.928 265.414 207.932 265.435 207.944C268.476 209.762 271.474 211.699 274.338 213.739C275.347 214.481 276.341 215.223 277.306 215.965L277.098 215.616C276.749 215.023 276.356 214.444 276 213.858C275.257 212.676 274.418 211.556 273.492 210.512C273.492 210.474 273.492 210.422 273.551 210.46C274.471 211.521 275.391 212.567 276.23 213.694C276.63 214.229 276.972 214.778 277.35 215.349C277.536 215.638 277.714 215.935 277.877 216.239C277.936 216.336 278.003 216.44 278.055 216.543C279.583 217.738 281.067 218.992 282.507 220.313C283.372 221.129 284.216 221.972 285.037 222.843C284.584 221.418 284.183 219.971 283.657 218.569C283.657 218.517 283.716 218.495 283.731 218.569C284.243 220.053 284.807 221.537 285.215 223.021C286.12 224.01 286.981 225.024 287.797 226.063L287.752 225.87C287.619 225.313 287.478 224.757 287.329 224.208C287.047 223.139 286.728 222.078 286.372 221.032C285.713 218.854 284.656 216.817 283.256 215.023C283.256 214.978 283.256 214.926 283.315 214.963C285.526 217.721 287.075 220.95 287.841 224.401C287.965 224.895 288.084 225.39 288.197 225.885C288.257 226.152 288.331 226.426 288.375 226.701C288.731 227.183 289.08 227.673 289.414 228.185C291.422 231.275 293.089 234.573 294.385 238.023C295.859 241.883 297.119 245.821 298.162 249.82C298.162 249.894 298.073 249.924 298.043 249.82C295.735 242.912 293.376 235.908 289.429 229.735C288.591 228.429 287.685 227.176 286.728 225.959C284.774 225.835 282.845 225.451 280.993 224.816C278.965 224.136 277.031 223.203 275.236 222.041C274.197 221.366 273.255 220.557 272.268 219.815C272.261 219.813 272.255 219.809 272.25 219.804C272.246 219.799 272.242 219.793 272.24 219.786C272.238 219.779 272.238 219.772 272.239 219.765C272.24 219.758 272.243 219.752 272.248 219.746C272.252 219.741 272.258 219.736 272.264 219.733C272.27 219.73 272.277 219.729 272.284 219.729C272.291 219.729 272.298 219.731 272.304 219.735C272.311 219.738 272.316 219.743 272.32 219.749C273.965 221.081 275.785 222.182 277.728 223.021C279.63 223.899 281.62 224.571 283.664 225.024C284.54 225.209 285.422 225.35 286.305 225.469C285.212 224.126 284.051 222.841 282.826 221.618C282.425 221.218 282.017 220.839 281.609 220.454C280.231 219.489 278.768 218.652 277.239 217.953C275.31 217.018 273.403 216.032 271.489 215.052C270.413 214.503 269.337 213.947 268.246 213.412C268.202 213.412 268.246 213.323 268.291 213.346C270.235 214.281 272.201 215.156 274.16 216.054C276 216.9 277.869 217.745 279.635 218.74L279.858 218.873C278.26 217.478 276.611 216.145 274.909 214.874C273.381 213.687 271.793 212.53 270.183 211.409Z" fill="#263238"/>
<path d="M270.858 217.5C271.815 217.916 272.795 218.294 273.744 218.732C274.694 219.17 275.644 219.726 276.571 220.275C276.616 220.275 276.571 220.357 276.534 220.334C275.592 219.889 274.642 219.466 273.707 218.999C272.772 218.532 271.808 218.005 270.829 217.574C270.784 217.552 270.806 217.478 270.858 217.5Z" fill="#263238"/>
<path d="M329.516 171.991C327.334 174.806 326.098 178.239 325.985 181.799C325.985 182.853 326.111 184.329 326.237 186.065C323.292 187.774 320.682 190.004 318.535 192.646C320.887 191.294 323.58 190.654 326.289 190.806C326.226 191.991 326.075 193.169 325.836 194.331C324.118 194.337 322.418 194.674 320.828 195.325C322.38 195.307 323.919 195.613 325.346 196.223C323.239 202.9 316.985 209.793 299.72 212.716C297.888 204.505 298.969 195.912 302.777 188.41C307.978 178.23 329.516 171.991 329.516 171.991Z" fill="#263238"/>
<path d="M293.77 241.354C294.066 238.495 294.44 235.644 294.89 232.8C295.763 227.111 296.925 221.47 298.37 215.898C299.048 213.282 299.881 210.708 300.862 208.189C300.813 207.731 300.793 207.27 300.803 206.809C300.803 206.26 300.803 205.704 300.803 205.148C300.803 204.042 300.87 202.922 300.966 201.838C301.142 199.654 301.497 197.488 302.027 195.361C302.339 194.13 302.71 192.92 303.066 191.704C303.07 191.696 303.075 191.689 303.082 191.684C303.09 191.679 303.098 191.677 303.107 191.677C303.116 191.677 303.124 191.679 303.131 191.684C303.138 191.689 303.144 191.696 303.148 191.704C302.574 193.826 302.148 195.985 301.872 198.166C301.56 200.315 301.367 202.48 301.293 204.65C301.293 205.244 301.256 205.838 301.256 206.431C301.256 206.683 301.256 206.936 301.256 207.173C302.106 205.11 303.077 203.098 304.164 201.148C305.926 198.061 307.91 195.105 310.1 192.304C310.102 191.978 310.149 191.653 310.241 191.34C310.322 190.954 310.404 190.598 310.493 190.183C310.671 189.396 310.864 188.61 311.079 187.831C311.509 186.265 312.081 184.751 312.563 183.208C312.563 183.198 312.567 183.189 312.574 183.182C312.581 183.175 312.59 183.171 312.6 183.171C312.61 183.171 312.619 183.175 312.626 183.182C312.633 183.189 312.637 183.198 312.637 183.208C312.177 184.737 311.895 186.324 311.524 187.875L311.012 190.19L310.767 191.347C310.767 191.347 310.767 191.407 310.767 191.436C311.465 190.551 312.177 189.683 312.904 188.832C316.206 184.967 319.819 181.413 323.462 177.851C323.907 177.421 324.367 176.991 324.82 176.568L324.872 176.62C321.399 180.248 317.972 183.921 314.729 187.749C313.958 188.659 313.199 189.582 312.452 190.516L313.631 189.737C314.64 189.084 315.657 188.439 316.703 187.853C317.749 187.267 318.81 186.695 319.886 186.161C320.962 185.627 322.171 185.167 323.239 184.544C323.291 184.544 323.328 184.596 323.284 184.611C322.192 185.117 321.138 185.702 320.131 186.362C319.077 186.985 318.031 187.608 317 188.268C315.968 188.929 314.959 189.544 313.958 190.197C313.112 190.746 312.288 191.34 311.413 191.844C309.413 194.417 307.568 197.105 305.885 199.895C304.839 201.652 303.883 203.463 303.022 205.318L303.645 205.051L305.225 204.354C306.242 203.901 307.258 203.463 308.282 203.018C310.218 202.172 312.185 201.401 314.084 200.473C315.157 199.973 316.193 199.398 317.185 198.752C317.23 198.752 317.267 198.796 317.222 198.826C313.683 201.267 309.714 202.988 305.789 204.717L304.09 205.459C303.622 205.667 303.155 205.897 302.68 206.075C301.518 208.671 300.541 211.346 299.757 214.081C298.212 219.58 296.959 225.157 296.003 230.789C295.009 236.428 294.341 242.104 293.821 247.809C293.755 248.551 293.695 249.234 293.614 249.939C293.604 249.992 293.576 250.04 293.535 250.074C293.493 250.109 293.441 250.127 293.387 250.127C293.334 250.127 293.281 250.109 293.24 250.074C293.199 250.04 293.171 249.992 293.161 249.939C293.169 247.134 293.465 244.233 293.77 241.354Z" fill="#263238"/>
<path d="M304.275 193.662C304.594 191.904 305.062 190.19 305.537 188.469C305.537 188.417 305.626 188.469 305.611 188.469C305.173 190.161 304.869 191.874 304.543 193.588C304.216 195.302 303.934 197.09 303.689 198.849C303.689 198.849 303.637 198.849 303.645 198.849C303.755 197.109 303.966 195.378 304.275 193.662Z" fill="#263238"/>
<path d="M311.716 198.425C312.917 197.633 314.171 196.927 315.471 196.311C316.101 195.984 316.739 195.673 317.378 195.369C318.016 195.064 318.72 194.783 319.373 194.456C319.418 194.456 319.455 194.501 319.41 194.523C318.78 194.842 318.179 195.228 317.556 195.562C316.932 195.895 316.287 196.303 315.641 196.608C314.4 197.332 313.122 197.994 311.813 198.589C311.792 198.596 311.769 198.596 311.747 198.589C311.726 198.581 311.708 198.566 311.697 198.547C311.686 198.528 311.681 198.505 311.685 198.483C311.688 198.461 311.7 198.44 311.716 198.425Z" fill="#263238"/>
<path opacity="0.1" d="M290.957 211.053C290.957 211.053 280.036 208.441 275.021 201.118C270.228 194.122 268.684 182.191 268.558 181.145C268.759 182.102 271.007 192.526 278.448 197.386C284.139 201.103 289.637 204.16 290.957 211.053Z" fill="#263238"/>
<path d="M280.874 192.179C282.815 193.967 284.211 196.266 284.903 198.812C284.903 198.812 284.903 198.849 284.866 198.812C284.065 196.324 282.678 194.064 280.822 192.224C280.785 192.209 280.837 192.149 280.874 192.179Z" fill="#263238"/>
<path d="M290.957 211.054C290.957 211.054 280.036 208.443 275.021 201.12C270.228 194.123 268.684 182.193 268.558 181.146C268.56 181.122 268.56 181.097 268.558 181.072C268.558 181.072 273.796 188.492 279.302 190.413C284.807 192.335 292.53 198.879 290.957 211.054Z" fill="#263238"/>
<path d="M270.48 185.175C271.46 187.18 272.588 189.11 273.856 190.947C275.129 192.692 276.643 194.248 278.352 195.569C279.836 196.749 281.401 197.795 282.907 198.975V198.923C282.625 198.5 282.321 198.092 282.017 197.699C281.386 196.897 280.704 196.141 280.014 195.399C278.656 193.915 277.276 192.483 276.059 190.888C275.383 190.009 274.796 189.064 274.308 188.068C274.308 188.016 274.36 187.994 274.382 188.068C276.156 191.778 279.695 194.123 282.217 197.239C282.574 197.684 282.915 198.144 283.226 198.619C283.478 198.965 283.69 199.338 283.857 199.732C285.235 200.841 286.48 202.106 287.567 203.501C287.474 202.783 287.328 202.074 287.129 201.379C286.872 200.407 286.483 199.476 285.972 198.611C285.966 198.602 285.964 198.592 285.966 198.581C285.968 198.571 285.974 198.562 285.983 198.556C285.992 198.55 286.002 198.548 286.013 198.55C286.023 198.552 286.032 198.558 286.038 198.567C286.566 199.431 286.995 200.351 287.315 201.312C287.54 202.08 287.672 202.872 287.708 203.671C288.25 204.406 288.745 205.175 289.192 205.971C289.147 205.734 289.103 205.504 289.051 205.267C288.836 204.183 288.598 203.093 288.309 202.024C287.794 199.836 286.906 197.752 285.682 195.866C285.682 195.866 285.719 195.784 285.749 195.822C286.999 197.682 287.978 199.71 288.657 201.846C289.006 202.915 289.288 204.005 289.533 205.103C289.652 205.645 289.756 206.179 289.859 206.721C289.911 207.003 289.978 207.285 290.023 207.574C291.106 209.957 291.949 212.443 292.538 214.993C293.611 219.543 294.389 224.158 294.868 228.808C295.426 233.675 295.674 238.571 295.609 243.469C295.609 244.085 295.558 244.693 295.528 245.309C295.528 245.465 295.283 245.487 295.276 245.309C295.164 242.883 295.105 240.457 294.964 238.038C294.823 235.619 294.608 233.201 294.348 230.782C293.848 226.045 293.088 221.339 292.07 216.685C291.187 212.693 290.037 208.672 287.856 205.17C286.769 203.433 285.443 201.857 283.916 200.488C282.381 199.116 280.711 197.906 279.094 196.638C277.449 195.397 275.955 193.967 274.642 192.379C273.307 190.617 272.144 188.732 271.17 186.748L270.383 185.264C270.391 185.175 270.458 185.13 270.48 185.175Z" fill="#263238"/>
<path d="M272.364 186.776C273.081 188.246 273.894 189.666 274.798 191.028C274.798 191.028 274.798 191.094 274.746 191.028C273.811 189.679 272.989 188.254 272.29 186.769C272.268 186.754 272.342 186.732 272.364 186.776Z" fill="#263238"/>
<path d="M331.037 206.223C331.037 206.223 331.208 221.744 321.926 226.255C312.644 230.766 307.673 226.997 301.367 228.481C301.612 228.11 306.115 221.64 313.275 219.86C320.643 217.99 328.804 212.692 331.037 206.223Z" fill="#263238"/>
<path opacity="0.1" d="M331.037 206.223C331.037 206.223 331.208 221.744 321.926 226.255C312.644 230.766 307.673 226.997 301.367 228.481C304.701 226.895 308.264 225.843 311.925 225.365C317.779 224.667 328.96 220.832 331.037 206.223Z" fill="black"/>
<path d="M300.758 228.749C301.87 227.744 303.119 226.902 304.468 226.249C304.668 226.152 304.869 226.078 305.076 225.989C305.284 225.9 305.277 225.752 305.388 225.633C305.663 225.343 305.953 225.069 306.256 224.809C306.839 224.306 307.465 223.854 308.126 223.459C309.662 222.554 311.346 221.923 312.919 221.085C312.963 221.085 313.008 221.129 312.963 221.152C312.184 221.56 311.428 222.005 310.671 222.443C309.914 222.88 309.187 223.281 308.445 223.741C307.799 224.156 307.184 224.617 306.605 225.121C306.442 225.262 306.286 225.418 306.13 225.574C307.155 225.231 308.201 224.953 309.261 224.743C310.96 224.401 312.681 224.157 314.38 223.793C315.21 223.615 316.029 223.394 316.836 223.133C317.578 222.509 318.38 221.894 319.107 221.226C319.99 220.416 320.795 219.524 321.51 218.562C321.516 218.553 321.526 218.547 321.536 218.545C321.546 218.543 321.557 218.545 321.566 218.551C321.575 218.557 321.581 218.566 321.583 218.577C321.585 218.587 321.583 218.598 321.577 218.607C320.45 220.129 319.175 221.535 317.771 222.806C318.172 222.65 318.565 222.487 318.958 222.309C322.143 220.888 324.88 218.626 326.875 215.765C326.875 215.728 326.971 215.765 326.942 215.81C325.254 218.275 323.077 220.366 320.546 221.953C319.276 222.745 317.92 223.387 316.502 223.867C314.857 224.377 313.179 224.774 311.479 225.054C309.814 225.326 308.17 225.717 306.56 226.227C305.079 226.725 303.687 227.457 302.435 228.393C300.072 230.229 298.167 232.589 296.871 235.286C295.212 238.868 294.178 242.707 293.814 246.637C293.814 246.801 293.532 246.801 293.547 246.637C293.984 240.071 295.728 233.282 300.758 228.749Z" fill="#263238"/>
<path d="M311.524 223.689C312.009 222.965 312.663 222.372 313.431 221.96C314.311 221.502 315.085 220.862 315.701 220.083C315.701 220.038 315.805 220.083 315.768 220.127C315.212 220.838 314.534 221.444 313.765 221.915C312.922 222.365 312.18 222.981 311.583 223.726C311.583 223.726 311.502 223.726 311.524 223.689Z" fill="#263238"/>
<path d="M306.597 240.204L306.182 248.744L304.884 274.816H285.415L284.124 248.744L283.701 240.204H306.597Z" fill="#37474F"/>
<path d="M306.597 240.204L306.182 248.744H284.124L283.701 240.204H306.597Z" fill="#263238"/>
<path d="M307.97 236.644H282.336V244.783H307.97V236.644Z" fill="#37474F"/>
<path d="M371.676 300C401.912 300 426.424 296.527 426.424 292.242C426.424 287.958 401.912 284.484 371.676 284.484C341.44 284.484 316.929 287.958 316.929 292.242C316.929 296.527 341.44 300 371.676 300Z" fill="#EBEBEB"/>
<path d="M331.912 291.979C333.379 292.453 375.102 291.909 376.676 290.879C377.308 290.499 377.555 284.417 377.681 277.057V276.823C377.681 275.306 377.726 273.744 377.732 272.164C377.732 271.942 377.732 271.727 377.732 271.531L375.709 249.889L347.795 250.167L350.551 271.614V272.461L350.722 276.887V277.342C350.722 277.342 334.846 284.695 333.234 286.01C331.621 287.325 330.452 291.517 331.912 291.979Z" fill="#D3766A"/>
<path d="M331.912 291.979C333.379 292.454 375.102 291.91 376.676 290.879C377.308 290.5 377.555 284.418 377.681 277.058V276.824C377.681 275.307 377.726 273.745 377.732 272.164C377.732 271.943 377.732 271.728 377.732 271.532L350.545 271.614V272.462L350.716 276.887V277.343C350.716 277.343 334.84 284.696 333.227 286.011C331.615 287.326 330.452 291.518 331.912 291.979Z" fill="#EBEBEB"/>
<path d="M331.641 292.111C333.12 292.586 375.412 292.023 377.011 290.986C377.644 290.594 377.903 284.429 378.023 276.969L350.754 277.253C350.754 277.253 334.663 284.714 333.05 286.042C331.438 287.369 330.155 291.612 331.641 292.111Z" fill="#455A64"/>
<path opacity="0.1" d="M357.304 292.037C367.18 291.809 376.272 291.436 377.011 290.962C377.644 290.57 377.903 284.405 378.023 276.945L371.865 277.008L357.304 292.037Z" fill="black"/>
<path d="M332.222 290.386C339.31 290.12 367.919 289.709 374.944 289.981C375.001 289.981 375.001 290.019 374.944 290.025C367.926 290.442 339.316 290.626 332.222 290.506C332.077 290.499 332.07 290.392 332.222 290.386Z" fill="#263238"/>
<path d="M348.016 277.975C350.855 277.893 354.155 278.854 355.951 281.136C356.02 281.225 355.894 281.326 355.805 281.282C353.308 280.014 350.682 279.018 347.972 278.31C347.937 278.294 347.909 278.268 347.891 278.235C347.873 278.202 347.866 278.164 347.871 278.126C347.875 278.089 347.892 278.054 347.918 278.027C347.945 278 347.979 277.981 348.016 277.975Z" fill="#263238"/>
<path d="M345.835 278.835C348.674 278.759 351.974 279.72 353.77 281.996C353.839 282.085 353.713 282.18 353.63 282.142C351.131 280.873 348.503 279.876 345.79 279.17C345.759 279.152 345.734 279.125 345.718 279.093C345.703 279.06 345.697 279.024 345.701 278.988C345.706 278.952 345.721 278.919 345.745 278.892C345.769 278.864 345.8 278.845 345.835 278.835Z" fill="#263238"/>
<path d="M343.66 279.739C346.492 279.663 349.799 280.617 351.594 282.9C351.664 282.988 351.531 283.083 351.449 283.039C348.949 281.786 346.323 280.8 343.615 280.099C343.568 280.093 343.524 280.068 343.494 280.031C343.465 279.993 343.451 279.944 343.457 279.897C343.463 279.849 343.488 279.805 343.526 279.776C343.564 279.746 343.612 279.733 343.66 279.739Z" fill="#263238"/>
<path d="M373.053 283.26C376.215 283.222 376.29 288.173 373.104 288.204C369.917 288.236 369.86 283.304 373.053 283.26Z" fill="#263238"/>
<path d="M348.926 276.969H378.977C378.977 276.969 372.927 206.789 373.161 205.556C373.464 203.988 375.235 196.881 377.587 187.606C378.326 184.697 379.123 181.587 379.951 178.356C382.196 169.624 384.661 160.084 386.817 151.801C390.042 139.364 392.565 129.672 392.565 129.672H367.097C367.097 129.672 364.132 139.08 360.389 151.327C354.294 171.218 346.151 198.601 345.348 205.258C344.058 216.007 348.926 276.969 348.926 276.969Z" fill="#263238"/>
<path d="M350.26 271.841C354.85 271.746 353.529 271.709 358.119 271.664C360.364 271.664 375.127 271.513 377.226 271.86C377.27 271.86 377.27 271.942 377.226 271.955C375.127 272.303 360.364 272.17 358.119 272.151C353.529 272.107 354.85 272.069 350.26 271.974C350.243 271.974 350.226 271.967 350.213 271.955C350.201 271.942 350.194 271.925 350.194 271.908C350.194 271.89 350.201 271.873 350.213 271.861C350.226 271.848 350.243 271.841 350.26 271.841Z" fill="#37474F"/>
<path d="M367.508 201.269C368.495 196.925 369.968 192.67 371.245 188.402C373.85 179.74 376.471 171.082 379.11 162.429C380.425 158.1 381.745 153.773 383.068 149.449C383.745 147.267 384.415 145.08 385.098 142.905C385.78 140.73 386.526 138.656 387.133 136.506C387.374 135.627 387.513 136.108 387.197 137.221C386.564 139.465 385.932 141.703 385.3 143.942C384.01 148.368 382.708 152.793 381.393 157.219C378.788 166.02 376.162 174.817 373.515 183.61L369.531 196.83C368.861 198.928 368.32 201.065 367.913 203.229C367.556 205.491 367.467 207.787 367.647 210.07C367.932 214.673 368.463 219.263 368.912 223.847C369.361 228.43 369.765 233.04 370.176 237.636C371.019 246.787 371.862 255.936 372.705 265.083C372.813 266.24 372.914 267.397 373.002 268.56C373.002 268.946 372.446 268.92 372.408 268.56C371.416 259.512 370.657 250.439 369.81 241.373C368.962 232.306 368.115 223.347 367.281 214.331C367.072 212.068 366.832 209.798 366.825 207.522C366.818 205.418 367.047 203.321 367.508 201.269Z" fill="#37474F"/>
<path d="M370.006 129.672C371.77 143.354 375.14 168.998 377.593 187.606C383.334 165.059 392.571 129.672 392.571 129.672H370.006Z" fill="#37474F"/>
<path d="M363.746 292.384C365.207 292.858 406.936 292.472 408.51 291.448C409.142 291.068 409.414 284.986 409.566 277.627V277.393C409.604 275.875 409.629 274.314 409.636 272.733C409.636 272.512 409.636 272.297 409.636 272.101C409.73 261.472 408.965 250.452 408.965 250.452L381.69 250.629L382.455 272.075V272.923L382.607 277.348V277.81C382.607 277.81 366.756 285.094 365.137 286.421C363.519 287.749 362.286 291.909 363.746 292.384Z" fill="#D3766A"/>
<path d="M363.746 292.383C365.207 292.858 406.936 292.472 408.51 291.448C409.142 291.068 409.414 284.986 409.566 277.627V277.393C409.604 275.875 409.629 274.313 409.635 272.733C409.635 272.512 409.635 272.297 409.635 272.101H382.448V272.948L382.6 277.374V277.835C382.6 277.835 366.756 285.094 365.137 286.421C363.519 287.749 362.286 291.909 363.746 292.383Z" fill="#EBEBEB"/>
<path d="M363.26 292.529C364.745 293.003 407.037 292.44 408.637 291.403C409.269 291.011 409.522 284.847 409.648 277.386L382.379 277.671C382.379 277.671 366.282 285.125 364.676 286.459C363.07 287.793 361.774 292.055 363.26 292.529Z" fill="#455A64"/>
<path d="M363.841 290.847C370.929 290.582 399.545 290.164 406.569 290.442C406.626 290.442 406.626 290.48 406.569 290.487C399.551 290.904 370.935 291.119 363.847 290.961C363.695 290.942 363.695 290.847 363.841 290.847Z" fill="#263238"/>
<path d="M379.635 278.411C382.474 278.335 385.781 279.296 387.57 281.572C387.64 281.661 387.513 281.756 387.431 281.718C384.932 280.448 382.303 279.452 379.591 278.746C379.56 278.728 379.535 278.701 379.519 278.668C379.503 278.636 379.497 278.6 379.502 278.564C379.506 278.528 379.522 278.494 379.545 278.467C379.569 278.44 379.6 278.42 379.635 278.411Z" fill="#263238"/>
<path d="M377.46 279.295C380.293 279.219 383.599 280.174 385.395 282.456C385.464 282.545 385.332 282.64 385.249 282.596C382.751 281.331 380.125 280.335 377.416 279.624C377.384 279.607 377.358 279.581 377.342 279.548C377.325 279.516 377.319 279.48 377.324 279.444C377.329 279.408 377.344 279.375 377.369 279.348C377.393 279.322 377.425 279.303 377.46 279.295Z" fill="#263238"/>
<path d="M375.279 280.181C378.118 280.098 381.418 281.059 383.214 283.342C383.283 283.43 383.157 283.532 383.068 283.487C380.571 282.22 377.944 281.224 375.234 280.516C375.2 280.5 375.172 280.473 375.154 280.44C375.136 280.407 375.128 280.369 375.133 280.332C375.138 280.294 375.155 280.26 375.181 280.232C375.207 280.205 375.242 280.187 375.279 280.181Z" fill="#263238"/>
<path d="M367.932 129.672C367.932 129.672 368.52 141.862 371.308 151.51C371.536 152.307 371.776 153.091 372.042 153.843C374.596 154.882 377.051 156.152 379.376 157.637C379.376 157.637 379.673 167.443 379.964 178.375C380.293 190.596 380.596 204.228 380.558 207.124C380.305 217.942 381.911 277.425 381.911 277.425L411.956 277.545C411.956 277.545 406.525 211.101 406.563 207.136C406.62 200.763 405.109 172.609 403.939 152.079C403.237 139.428 402.605 129.672 402.605 129.672H367.932Z" fill="#263238"/>
<path d="M382.942 272.063C387.532 271.987 386.21 271.943 390.801 271.917C393.051 271.917 407.808 271.842 409.907 272.196C409.952 272.196 409.952 272.284 409.907 272.291C407.808 272.632 393.045 272.436 390.801 272.404C386.21 272.341 387.532 272.309 382.942 272.196C382.928 272.191 382.915 272.182 382.906 272.17C382.898 272.159 382.893 272.144 382.893 272.129C382.893 272.114 382.898 272.1 382.906 272.088C382.915 272.076 382.928 272.067 382.942 272.063Z" fill="#37474F"/>
<path d="M400.114 134.047C400.664 150.808 401.252 167.557 402.011 184.324C402.769 201.092 403.781 217.942 405.172 234.715C405.962 244.079 406.702 257.262 407.701 266.607C407.701 266.67 407.612 266.695 407.6 266.607C405.412 249.978 404.192 229.417 403.117 212.688C402.042 195.958 401.315 179.178 400.746 162.448C400.424 152.964 400.177 143.48 399.893 133.997C399.899 133.883 400.076 133.895 400.114 134.047Z" fill="#37474F"/>
<path d="M370.79 153.122C373.778 154.365 376.651 155.87 379.376 157.617C379.394 157.631 379.407 157.652 379.412 157.674C379.417 157.697 379.414 157.721 379.403 157.741C379.393 157.762 379.376 157.779 379.355 157.788C379.333 157.798 379.31 157.8 379.287 157.794C376.392 156.384 373.433 155.031 370.613 153.463C370.567 153.44 370.533 153.399 370.518 153.351C370.503 153.302 370.507 153.249 370.531 153.204C370.554 153.159 370.594 153.125 370.643 153.109C370.692 153.094 370.744 153.098 370.79 153.122Z" fill="#37474F"/>
<path d="M370.619 142.785C370.821 143.847 371.081 144.91 371.308 145.946C371.536 146.983 371.688 147.963 371.94 148.943C372.156 149.902 372.64 150.78 373.338 151.472C373.73 151.833 374.16 152.155 374.602 152.484C374.824 152.667 375.07 152.838 375.304 153.021C375.304 152.876 375.247 152.737 375.222 152.591L375.013 151.378C374.861 150.473 374.716 149.576 374.583 148.671C374.311 146.901 374.059 145.112 373.692 143.354C373.692 143.285 373.78 143.259 373.799 143.354C374.242 145.093 374.729 146.813 375.114 148.564C375.304 149.424 375.974 153.673 376.006 153.97C376.037 154.267 376.063 154.602 376.075 154.906C376.113 155.221 376.113 155.539 376.075 155.854C376.071 155.87 376.061 155.883 376.048 155.893C376.035 155.903 376.019 155.908 376.003 155.908C375.986 155.908 375.97 155.903 375.957 155.893C375.944 155.883 375.935 155.87 375.93 155.854C375.804 155.558 375.713 155.248 375.658 154.931C375.582 154.627 375.513 154.299 375.462 154.014C375.462 153.9 375.424 153.786 375.412 153.673C374.994 153.42 374.602 153.085 374.21 152.8C373.818 152.516 373.363 152.199 372.946 151.864C372.209 151.242 371.677 150.411 371.422 149.481C371.162 148.482 370.993 147.462 370.916 146.433C370.783 145.226 370.689 144.012 370.518 142.81C370.499 142.741 370.606 142.709 370.619 142.785Z" fill="#37474F"/>
<path d="M380.109 96.7441C373.199 111.52 361.951 129.489 355.812 129.818C354.749 129.868 350.469 129.369 348.724 125.392C345.771 118.677 342.977 105.273 342.566 98.8937C342.382 96.0675 361.376 93.1655 361.957 96.1371C362.779 100.304 363.222 104.78 363.671 104.73C364.423 104.641 367.546 99.9496 374.887 92.1539C384.01 82.4424 382.676 91.2308 380.109 96.7441Z" fill="#F7A9A0"/>
<path d="M339.784 91.2564C340.271 95.2333 344.463 102.978 346.195 104.452C347.927 105.925 361.319 99.2734 361.774 96.9593C362.229 94.6453 359.529 81.4058 356.602 78.548C353.675 75.6902 339.272 87.134 339.784 91.2564Z" fill="#F7A9A0"/>
<path d="M361.711 94.6187C362.536 91.4868 363.814 88.4921 365.504 85.7291C367.635 82.5109 371.195 77.9713 369.481 76.7574C366.016 74.2726 357.215 85.609 357.215 85.609C357.215 85.609 354.13 91.2298 357.348 93.9991C357.948 94.4939 358.672 94.8136 359.442 94.9229C360.212 95.0322 360.997 94.927 361.711 94.6187Z" fill="#F7A9A0"/>
<path d="M353.377 91.8626L348.768 89.7572L354.857 76.4165L360.693 79.0783L353.377 91.8626Z" fill="#263238"/>
<path d="M360.693 79.072L357.904 83.953L353.377 91.8626L348.768 89.7635L354.857 76.4165L360.693 79.072Z" fill="#263238"/>
<path opacity="0.1" d="M360.693 79.072L357.904 83.953L352.536 81.5062L354.857 76.4165L360.693 79.072Z" fill="black"/>
<path d="M360.333 81.2829L353.079 77.9741L355.593 72.4633L362.847 75.7721L360.333 81.2829Z" fill="#263238"/>
<path d="M368.627 75.9864L362.735 73.9759L366.8 65.0547L372.181 68.1907L368.627 75.9864Z" fill="#263238"/>
<path d="M364.708 61.9691L358.701 75.1327L348.73 71.9461L323.054 70.0051L337.47 38.3984L355.767 56.519L364.708 61.9691Z" fill="#263238"/>
<path d="M334.852 56.2792C330.856 65.0549 325.324 71.1183 322.504 69.8348C319.684 68.5513 320.645 60.3952 324.648 51.6258C328.65 42.8563 334.176 36.7803 336.996 38.0701C339.815 39.3599 338.854 47.5287 334.852 56.2792Z" fill="#263238"/>
<path opacity="0.2" d="M323.175 67.6857C320.866 66.6321 321.873 59.4657 325.425 51.6789C328.977 43.8922 333.728 38.4339 336.038 39.4874C338.348 40.541 337.341 47.7074 333.789 55.4941C330.237 63.2809 325.485 68.7392 323.175 67.6857Z" fill="black"/>
<path d="M333.107 55.1727C332.633 56.2096 332.14 57.2086 331.634 58.1507C330.999 58.3146 330.331 58.2956 329.707 58.0957C329.083 57.8959 328.528 57.5234 328.107 57.0214C327.686 56.5193 327.415 55.9083 327.326 55.2589C327.238 54.6095 327.335 53.9483 327.607 53.3518L328.289 51.8534C328.561 51.2606 328.994 50.7564 329.538 50.3986C330.083 50.0408 330.718 49.844 331.37 49.8308C332.022 49.8176 332.664 49.9885 333.223 50.3239C333.782 50.6593 334.235 51.1456 334.53 51.7269C334.119 52.8524 333.638 54.0094 333.107 55.1727Z" fill="#263238"/>
<path d="M363.475 78.1867L352.075 74.3047L359.947 57.0566L370.347 63.1137L363.475 78.1867Z" fill="#263238"/>
<path opacity="0.2" d="M363.475 78.1867L352.075 74.3047L359.947 57.0566L370.347 63.1137L363.475 78.1867Z" fill="black"/>
<path opacity="0.2" d="M337.963 41.2373C338.28 42.5122 338.361 43.8342 338.203 45.1383C338.08 46.4444 337.852 47.7384 337.52 49.0078C337.375 49.64 337.173 50.2723 336.989 50.9045C336.806 51.5368 336.572 52.1691 336.357 52.7571C336.142 53.3451 335.896 53.9836 335.636 54.5843C335.377 55.1849 335.131 55.7919 334.852 56.3862C333.77 58.7826 332.471 61.0747 330.97 63.2336C330.216 64.3044 329.37 65.3072 328.441 66.2305C327.521 67.1704 326.414 67.907 325.191 68.3928C326.375 67.847 327.436 67.0661 328.308 66.0977C329.209 65.1611 330.024 64.1454 330.743 63.0629C332.19 60.9034 333.449 58.623 334.505 56.2471C335.623 53.8986 336.541 51.46 337.249 48.9572C337.611 47.716 337.871 46.4472 338.026 45.1636C338.235 43.8612 338.214 42.5323 337.963 41.2373Z" fill="black"/>
<path d="M326.626 35.2314C327.176 35.9585 327.682 36.7046 328.188 37.4507C328.694 38.1967 329.174 38.9681 329.655 39.7331C330.135 40.4982 330.603 41.2695 331.046 42.0598L331.71 43.2422C331.918 43.6405 332.14 44.0325 332.342 44.4435C332.064 44.0831 331.811 43.71 331.539 43.3433L330.78 42.2242C330.268 41.4782 329.788 40.7131 329.307 39.9481C328.827 39.1831 328.365 38.4054 327.923 37.6214C327.48 36.8374 327.031 36.0471 326.626 35.2314Z" fill="#263238"/>
<path d="M324.875 62.0898C323.851 62.0898 322.833 62.0519 321.815 62.0013C320.797 61.9507 319.786 61.8748 318.768 61.799C317.75 61.7231 316.738 61.6219 315.726 61.5018L314.209 61.3184C313.703 61.2426 313.197 61.1793 312.692 61.0908C313.204 61.0908 313.716 61.0908 314.222 61.0908L315.752 61.1604C316.77 61.2046 317.788 61.2868 318.799 61.3627C319.811 61.4386 320.829 61.5397 321.84 61.6599C322.852 61.78 323.87 61.9254 324.875 62.0898Z" fill="#263238"/>
<path d="M307.602 53.9458C309.075 54.205 310.542 54.5148 312.028 54.8246C313.514 55.1344 314.955 55.4569 316.409 55.8046C317.863 56.1524 319.324 56.5001 320.772 56.8795L322.947 57.4548C323.668 57.6572 324.395 57.8468 325.109 58.0871C324.369 57.9606 323.636 57.8089 322.903 57.6698L320.702 57.2146C319.235 56.9048 317.775 56.5823 316.321 56.2283C314.867 55.8742 313.406 55.5328 311.958 55.1534C310.51 54.7741 309.031 54.3821 307.602 53.9458Z" fill="#263238"/>
<path d="M318.458 33.4229C319.488 34.542 320.487 35.6863 321.48 36.8371C322.473 37.9878 323.446 39.1511 324.42 40.3145C325.394 41.4778 326.317 42.6665 327.29 43.8551L328.694 45.6507C329.156 46.283 329.623 46.852 330.066 47.4717C329.548 46.9153 329.048 46.3399 328.542 45.7772L327.044 44.0574C326.045 42.9131 325.078 41.7434 324.104 40.58C323.13 39.4167 322.175 38.228 321.24 37.0331C320.304 35.8381 319.356 34.6494 318.458 33.4229Z" fill="#263238"/>
<path d="M327.12 52.6247C325.495 51.9545 323.895 51.2464 322.289 50.532C320.683 49.8175 319.128 49.0714 317.509 48.3443C315.891 47.6172 314.348 46.8396 312.761 46.0682L310.403 44.8985C309.625 44.4939 308.841 44.1082 308.063 43.6909C308.879 44.0197 309.682 44.3738 310.491 44.7152L312.894 45.7837C314.5 46.4982 316.055 47.2442 317.68 47.9713C319.305 48.6984 320.841 49.4761 322.422 50.2474C324.003 51.0188 325.571 51.8028 327.12 52.6247Z" fill="#263238"/>
<path d="M360.244 83.8452C359.378 85.78 357.588 83.6492 357.588 83.6492C357.588 83.6492 359.422 87.3416 357.753 88.9918C356.083 90.642 354.073 87.9296 353.927 87.7273C354.022 87.9233 355.616 91.3565 353.769 92.8486C351.923 94.3407 350.229 91.3754 350.128 91.1794C350.159 91.3944 350.532 94.2206 348.863 95.0299C346.005 96.4272 344.855 89.2194 342.705 87.8032C342.705 87.8032 339.891 91.1605 339.79 91.2427C339.79 91.2427 338.526 84.4143 340.618 81.626C340.915 81.2166 341.342 80.9203 341.829 80.7859C342.316 80.6514 342.835 80.6868 343.299 80.8863C343.299 80.8863 342.667 78.7303 344.071 77.51C344.798 76.8777 346.448 77.51 346.448 77.51C346.328 77.0151 346.347 76.4967 346.502 76.0116C346.657 75.5265 346.942 75.0934 347.327 74.7597C348.389 73.9567 349.856 74.6901 349.856 74.6901C349.856 74.6901 350.21 72.7934 351.557 72.3445C354.282 71.3834 362.077 79.6723 360.244 83.8452Z" fill="#F7A9A0"/>
<path d="M346.416 77.4533C346.416 77.4533 346.416 77.3711 346.473 77.3964C350.16 79.8326 352.851 83.509 354.06 87.7592C354.098 87.9109 353.984 88.0816 353.927 87.9109C352.973 85.0657 349.16 79.9128 346.416 77.4533Z" fill="#263238"/>
<path d="M350.083 91.5214C348.857 87.3801 346.423 84.0481 343.432 80.9817C343.394 80.9437 343.432 80.8931 343.495 80.9184C345.392 82.0186 347.067 84.1682 348.25 85.9765C349.382 87.613 350.062 89.5191 350.222 91.5024C350.229 91.5594 350.128 91.6099 350.083 91.5214Z" fill="#263238"/>
<path d="M357.639 83.6689C357.696 83.8144 357.424 83.7385 357.475 83.8776C357.683 84.5098 358.638 88.2528 357.475 88.9736C356.526 89.549 355.097 88.6764 354.68 88.1264L353.624 86.7354L354.13 88.4046C354.361 89.1449 354.472 89.9177 354.459 90.6933C354.467 91.0472 354.401 91.3989 354.265 91.7256C354.129 92.0523 353.925 92.3469 353.668 92.5901C353.425 92.8184 353.111 92.9563 352.778 92.9804C352.446 93.0046 352.115 92.9137 351.841 92.7229C351.236 92.2817 350.753 91.6944 350.437 91.0158L349.508 89.1759L349.786 91.2118C349.859 91.7785 349.859 92.3522 349.786 92.9189C349.743 93.4607 349.541 93.9776 349.205 94.4047C349.046 94.5898 348.839 94.727 348.606 94.8007C348.374 94.8744 348.126 94.8818 347.889 94.822C347.38 94.6093 346.942 94.2563 346.625 93.8041C345.927 92.8351 345.307 91.8118 344.772 90.7439C344.482 90.2191 344.191 89.6817 343.875 89.1633C343.586 88.6248 343.185 88.1548 342.699 87.7849C343.132 88.2022 343.481 88.6978 343.729 89.2455C344.001 89.7829 344.248 90.3329 344.501 90.883C344.973 92.0099 345.551 93.0896 346.227 94.1075C346.586 94.6644 347.1 95.104 347.706 95.3721C348.051 95.4838 348.42 95.4924 348.77 95.3969C349.119 95.3014 349.433 95.106 349.672 94.8346C350.103 94.3171 350.369 93.6832 350.437 93.0137C350.519 92.3841 350.519 91.7466 350.437 91.117L349.805 91.313C350.165 92.1187 350.73 92.8162 351.443 93.3362C351.845 93.6165 352.333 93.7464 352.821 93.7029C353.29 93.6427 353.73 93.4447 354.086 93.1339C354.415 92.8192 354.674 92.4387 354.846 92.017C355.018 91.5954 355.1 91.1422 355.085 90.687C355.095 89.8276 354.96 88.9725 354.686 88.158L354.143 88.4362C354.699 89.119 356.191 90.2697 357.778 89.5616C359.713 88.3793 358.006 84.3771 357.639 83.6689Z" fill="#263238"/>
<path d="M357.569 83.6495C357.91 83.9165 358.289 84.1297 358.695 84.2817C358.857 84.3483 359.034 84.371 359.209 84.3478C359.383 84.3245 359.548 84.2559 359.687 84.149C359.958 83.8681 360.14 83.5143 360.212 83.131C360.313 82.72 360.402 82.2775 360.471 81.8159C360.635 82.2604 360.701 82.7346 360.667 83.2069C360.665 83.468 360.611 83.7261 360.508 83.966C360.404 84.2059 360.254 84.4228 360.067 84.6042C359.84 84.7825 359.564 84.8883 359.276 84.9077C359.005 84.9092 358.738 84.8371 358.505 84.699C358.088 84.4591 357.76 84.091 357.569 83.6495Z" fill="#263238"/>
<path d="M339.487 104.008L362.008 95.4091C362.008 95.4091 363.544 104.362 363.81 104.406C364.075 104.45 370.657 94.8907 377.719 89.0044C384.782 83.118 383.84 90.4396 381.696 96.5915C378.946 104.501 367.49 129.387 362.261 131.125C357.032 132.864 348.983 129.229 347.82 127.022C346.22 123.981 339.487 104.008 339.487 104.008Z" fill="#37474F"/>
<path opacity="0.1" d="M377.043 89.5988V107.372H377.22C377.612 106.505 377.998 105.664 378.358 104.843V88.5239L377.726 89.0171L377.043 89.5988Z" fill="black"/>
<path d="M342.408 106.733C343.154 106.335 350.184 103.774 351.727 103.249L356.349 101.681C357.942 101.15 359.51 100.524 361.173 100.113C361.187 100.112 361.201 100.115 361.213 100.122C361.225 100.129 361.234 100.14 361.239 100.153C361.244 100.166 361.245 100.18 361.241 100.194C361.237 100.207 361.229 100.219 361.217 100.227C359.687 100.929 358.056 101.441 356.475 102.023L351.809 103.736C350.248 104.299 343.236 106.682 342.433 106.84C342.363 106.859 342.357 106.758 342.408 106.733Z" fill="#263238"/>
<path opacity="0.1" d="M352.657 130.253C355.622 131.429 359.378 132.106 362.267 131.145C367.496 129.412 378.946 104.527 381.709 96.617C383.056 92.7539 383.935 88.3976 382.645 87.209L352.657 130.253Z" fill="black"/>
<path d="M363.803 104.52C363.955 105.734 364.037 106.954 364.1 108.174C364.164 109.395 364.183 110.621 364.176 111.842C364.17 113.062 364.132 114.288 364.031 115.509C363.95 116.731 363.796 117.947 363.569 119.15C363.569 118.518 363.614 117.93 363.614 117.323C363.614 116.716 363.614 116.103 363.652 115.496L363.683 111.842L363.721 108.181V106.354C363.772 105.74 363.772 105.133 363.803 104.52Z" fill="#263238"/>
<path d="M364.891 135.311C365.435 136.006 404.091 138.801 404.299 138.573C404.887 137.941 398.432 97.173 390.244 89.5733C388.48 87.942 381.298 87.6765 380.293 87.9737C379.148 88.3277 375.614 93.4364 373.869 97.6788C370.36 106.151 364.41 134.679 364.891 135.311Z" fill="#EBEBEB"/>
<path d="M382.012 97.8243L381.001 94.0181L378.238 95.7315L378.718 98.8928L380.982 99.348L382.012 97.8243Z" fill="#263238"/>
<path d="M380.982 99.3483L380.255 125.107L374.843 133.256L373.022 123.526L378.718 98.8931L380.982 99.3483Z" fill="#263238"/>
<path d="M360.554 143.728C360.554 143.728 365.612 144.113 372.453 144.594C373.199 142.248 374.881 136.507 374.982 136.52C375.039 136.659 376.208 142.539 376.537 144.891C383.15 145.352 390.636 145.871 396.542 146.231C402.447 146.592 406.854 146.794 407.1 146.642C407.347 146.491 405.014 138.24 404.786 137.038C403.054 127.554 400.196 108.7 397.155 101.461C395.818 98.1701 394.207 94.9976 392.337 91.9771C392.148 91.6863 391.97 91.4144 391.806 91.1742L390.592 89.4102L377.46 109.87C377.46 109.446 378.567 89.5872 378.567 89.5872C375.01 94.0064 372.194 98.9729 370.227 104.294C366.623 114.277 364.929 129.211 363.443 136.267C363.449 136.267 360.573 143.582 360.554 143.728Z" fill="#37474F"/>
<path d="M377.466 109.87C377.131 112.076 376.866 114.295 376.606 116.508C376.347 118.721 376.126 120.934 375.911 123.166C375.696 125.398 375.513 127.592 375.361 129.836L375.14 133.175C375.089 134.287 375.013 135.4 374.982 136.519C375.159 135.413 375.291 134.306 375.449 133.2L375.848 129.881C376.107 127.661 376.328 125.455 376.537 123.223C376.746 120.991 376.942 118.797 377.087 116.553C377.232 114.308 377.39 112.102 377.466 109.87Z" fill="#263238"/>
<path d="M377.896 117.836C377.87 118.053 377.908 118.274 378.007 118.469C378.105 118.665 378.259 118.827 378.449 118.936C378.639 119.044 378.857 119.095 379.075 119.08C379.294 119.065 379.503 118.987 379.677 118.854C379.851 118.72 379.982 118.539 380.053 118.332C380.124 118.125 380.133 117.902 380.078 117.69C380.023 117.478 379.906 117.287 379.743 117.141C379.58 116.995 379.378 116.9 379.161 116.868C379.014 116.847 378.864 116.855 378.721 116.893C378.577 116.93 378.443 116.996 378.325 117.086C378.207 117.176 378.108 117.289 378.035 117.418C377.961 117.546 377.914 117.689 377.896 117.836Z" fill="#263238"/>
<path d="M378.598 125.392C377.984 125.392 377.485 124.893 377.485 124.279C377.485 123.664 377.984 123.166 378.598 123.166C379.213 123.166 379.711 123.664 379.711 124.279C379.711 124.893 379.213 125.392 378.598 125.392Z" fill="#263238"/>
<path d="M377.087 130.443C377.061 130.661 377.099 130.881 377.197 131.077C377.296 131.272 377.449 131.435 377.64 131.543C377.83 131.652 378.048 131.702 378.266 131.688C378.485 131.673 378.694 131.594 378.868 131.461C379.042 131.328 379.173 131.147 379.244 130.94C379.315 130.733 379.324 130.509 379.269 130.297C379.213 130.085 379.097 129.894 378.934 129.748C378.771 129.602 378.568 129.507 378.351 129.476C378.205 129.456 378.056 129.464 377.912 129.502C377.769 129.54 377.635 129.606 377.517 129.696C377.4 129.786 377.301 129.898 377.227 130.026C377.153 130.155 377.106 130.296 377.087 130.443Z" fill="#263238"/>
<path d="M393.443 91.9134C406.765 103.066 424.531 127.465 422.205 132.991C419.6 139.137 401.03 123.507 400.999 122.502C400.999 121.737 393.519 106.588 387.905 95.5868C382.29 84.5855 390.149 89.1567 393.443 91.9134Z" fill="#F7A9A0"/>
<path d="M400.873 122.533C400.19 120.902 390.124 100.948 387.159 94.6124C384.194 88.2772 386.166 86.0453 393.349 91.4132C400.531 96.7811 416.945 115.439 421.275 125.776C425.442 135.728 420.163 136.234 412.74 132.181C406.664 128.856 400.873 122.533 400.873 122.533Z" fill="#37474F"/>
<path opacity="0.1" d="M419.088 132.435V134.528C419.525 134.579 419.966 134.579 420.403 134.528V132.448L419.088 132.435Z" fill="black"/>
<path d="M392.691 106.108C392.434 105.625 392.122 105.173 391.762 104.761C391.413 104.346 391.021 103.969 390.592 103.636C390.851 104.116 391.163 104.565 391.521 104.976C391.869 105.395 392.261 105.775 392.691 106.108Z" fill="#263238"/>
<path d="M399.678 119.625C399.008 118.076 398.293 116.553 397.566 115.035C396.839 113.518 396.08 112.019 395.334 110.508C394.588 108.997 393.798 107.518 393.001 106.038C392.204 104.559 391.401 103.079 390.548 101.612C391.218 103.155 391.939 104.679 392.66 106.196C393.38 107.714 394.152 109.212 394.892 110.723C395.631 112.234 396.428 113.714 397.225 115.193C398.021 116.673 398.812 118.171 399.678 119.625Z" fill="#263238"/>
<path d="M381.108 93.8795C383.34 94.6319 388.113 91.2619 389.96 88.5748C390.08 88.3852 389.96 86.3177 389.96 83.7886C389.96 82.2586 389.96 80.5515 390.137 79.0024L380.172 80.463C380.549 82.4585 380.678 84.4928 380.558 86.52C380.537 86.7345 380.495 86.9463 380.432 87.1523C380.427 87.1859 380.427 87.2198 380.432 87.2534C380.103 88.4484 378.977 93.1524 381.108 93.8795Z" fill="#F7A9A0"/>
<path d="M380.438 87.1522C380.438 87.1522 380.438 87.2154 380.438 87.2533C380.764 87.3301 381.096 87.3809 381.431 87.4051C387.083 87.7971 389.056 81.0192 389.492 79.0972L387.001 79.4639L380.198 80.4692C380.574 82.4626 380.704 84.4948 380.583 86.5199C380.553 86.7345 380.505 86.946 380.438 87.1522Z" fill="#263238"/>
<path d="M380.526 86.7095L381.544 92.7855L390.029 87.2595L391.502 89.953C391.502 89.953 382.259 99.6961 382.328 99.1776L381.064 93.8603L377.011 96.4842L379.123 88.1321L380.526 86.7095Z" fill="#EBEBEB"/>
<path d="M377.833 92.2796C378.225 90.9139 378.586 89.5229 379.041 88.1762C379.041 88.132 379.142 88.1256 379.142 88.1762C379.142 89.5798 377.587 94.796 377.315 96.0668C377.485 95.953 381.039 93.797 381.058 93.8476C381.393 94.7201 382.322 98.5959 382.36 98.9373C383.821 97.3946 389.353 91.8117 390.997 90.4018C391.006 90.3959 391.018 90.3934 391.029 90.3947C391.04 90.396 391.051 90.4011 391.059 90.4092C391.067 90.4172 391.072 90.4277 391.073 90.439C391.075 90.4502 391.072 90.4616 391.066 90.4713C389.707 92.1468 382.354 99.6833 382.272 99.6391C381.754 97.7905 381.332 95.9165 381.007 94.0246C380.375 94.5241 376.714 97.0342 376.752 96.8255C377.033 95.2924 377.394 93.775 377.833 92.2796Z" fill="#263238"/>
<path d="M392.312 67.7422C393.058 71.3713 390.244 81.3926 387.519 83.4285C383.574 86.3875 377.586 86.1472 375.197 81.5317C372.876 77.0364 376.777 64.0435 379.774 62.2352C384.187 59.5607 391.224 62.3806 392.312 67.7422Z" fill="#F7A9A0"/>
<path d="M382.676 73.1987C382.676 73.1987 382.72 73.243 382.676 73.2746C382.474 73.9448 382.347 74.7478 382.897 75.1714C382.196 74.8616 382.373 73.7994 382.676 73.1987Z" fill="#263238"/>
<path d="M383.473 72.6612C384.586 72.8762 384.067 75.0764 383.037 74.8804C382.006 74.6844 382.543 72.4778 383.473 72.6612Z" fill="#263238"/>
<path d="M378.895 72.25C378.895 72.25 378.832 72.25 378.826 72.2943C378.693 72.9834 378.415 73.7485 377.745 73.8306V73.8686C378.522 73.9381 378.876 72.9202 378.895 72.25Z" fill="#263238"/>
<path d="M378.453 71.3965C377.371 71.0551 376.771 73.2364 377.77 73.5525C378.769 73.8686 379.357 71.681 378.453 71.3965Z" fill="#263238"/>
<path d="M384.352 72.2753C384.105 72.077 383.868 71.866 383.644 71.6431C383.355 71.469 383.133 71.2044 383.011 70.8907C382.994 70.7865 383.012 70.6796 383.062 70.5868C383.113 70.4941 383.193 70.4208 383.289 70.3785C383.493 70.3213 383.709 70.3198 383.914 70.3743C384.118 70.4288 384.304 70.5373 384.453 70.6884C384.786 70.9561 385.011 71.3359 385.085 71.7569C385.095 71.8481 385.081 71.9405 385.044 72.0243C385.006 72.1081 384.947 72.1803 384.872 72.2333C384.797 72.2863 384.709 72.3181 384.618 72.3255C384.526 72.3329 384.434 72.3156 384.352 72.2753Z" fill="#263238"/>
<path d="M377.707 69.8975C378.016 69.9165 378.327 69.9165 378.636 69.8975C378.964 69.9338 379.294 69.8628 379.578 69.6952C379.658 69.6252 379.712 69.5304 379.731 69.4261C379.751 69.3218 379.735 69.2139 379.686 69.1198C379.563 68.9472 379.396 68.8108 379.203 68.7251C379.009 68.6394 378.796 68.6076 378.586 68.633C378.153 68.6133 377.728 68.7578 377.397 69.0377C377.329 69.1056 377.283 69.1912 377.262 69.2847C377.241 69.3781 377.247 69.4755 377.28 69.5656C377.312 69.6556 377.37 69.7346 377.445 69.7934C377.521 69.8521 377.611 69.8882 377.707 69.8975Z" fill="#263238"/>
<path d="M381.791 77.3647C381.555 77.5953 381.273 77.774 380.964 77.8894C380.655 78.0048 380.325 78.0543 379.995 78.0349C379.709 78.0255 379.426 77.9744 379.155 77.8832L378.996 77.8263L378.851 77.7694C378.817 77.7517 378.789 77.7241 378.771 77.6903C378.753 77.6564 378.746 77.6178 378.75 77.5797C378.746 77.5567 378.746 77.5332 378.75 77.5102V77.4533C378.857 76.9222 379.091 76.1318 379.091 76.1318C378.883 76.1824 377.827 76.3974 377.877 76.1318C378.487 73.778 379.335 71.4923 380.406 69.3098C380.438 69.2402 380.552 69.3098 380.527 69.354C379.97 71.5353 379.034 73.6028 378.44 75.7841C378.826 75.7012 379.222 75.6756 379.616 75.7082C379.686 75.7462 379.129 77.2193 379.098 77.4596C379.518 77.6046 379.963 77.6631 380.406 77.6316C380.85 77.6001 381.282 77.4792 381.677 77.2762C381.804 77.2636 381.842 77.3205 381.791 77.3647Z" fill="#263238"/>
<path d="M379.471 77.8453C379.696 78.2661 380.028 78.6212 380.432 78.8758C380.655 79.0072 380.913 79.0668 381.171 79.0466C381.734 78.9897 381.804 78.4965 381.804 78.0539C381.788 77.8196 381.743 77.5881 381.671 77.3647C381.009 77.7584 380.237 77.927 379.471 77.8453Z" fill="#263238"/>
<path d="M380.432 78.8757C380.655 79.007 380.913 79.0666 381.171 79.0464C381.734 78.9895 381.804 78.4964 381.804 78.0538C381.515 78.0117 381.221 78.0705 380.971 78.2203C380.721 78.3701 380.531 78.6016 380.432 78.8757Z" fill="#FF98B9"/>
<path d="M376.379 66.0666C379.502 69.4555 385.452 66.7747 385.452 66.7747C385.582 67.6562 385.993 68.4721 386.624 69.101C387.255 69.7299 388.073 70.1381 388.955 70.2648C388.955 70.2648 388.247 76.7075 389.897 77.0742C392.426 77.637 395.163 69.2595 394.752 67.3944C394.342 65.5292 392.306 64.6124 392.306 64.6124C392.308 63.5396 391.901 62.5063 391.168 61.723C389.745 60.0159 383.403 60.4585 383.403 60.4585C383.244 59.5872 382.885 58.7647 382.354 58.0559C382.227 57.8815 382.066 57.7346 381.881 57.6241C381.695 57.5135 381.489 57.4416 381.276 57.4127C381.062 57.3837 380.844 57.3984 380.636 57.4557C380.428 57.513 380.234 57.6117 380.065 57.7461C380.272 58.2812 380.356 58.8559 380.312 59.4279C380.185 61.3247 378.687 60.9896 379.085 59.3267C379.211 58.6991 379.559 58.138 380.065 57.7461C379.572 56.4816 378.447 55.8493 377.58 56.2666C376.006 56.9937 373.78 63.2341 376.379 66.0666Z" fill="#263238"/>
<path d="M383.308 76.7015C383.873 76.777 384.447 76.6924 384.966 76.4574C385.485 76.2225 385.927 75.8465 386.243 75.3723C386.559 74.8982 386.735 74.345 386.751 73.7756C386.768 73.2063 386.624 72.6438 386.337 72.1521C386.049 71.6604 385.63 71.2593 385.125 70.9945C384.621 70.7298 384.052 70.612 383.484 70.6545C382.916 70.697 382.372 70.8982 381.913 71.2351C381.453 71.5721 381.098 72.0312 380.887 72.5602C380.714 72.9898 380.642 73.4532 380.676 73.915C380.71 74.3767 380.849 74.8246 381.083 75.2243C381.317 75.624 381.639 75.9649 382.024 76.2209C382.41 76.477 382.849 76.6414 383.308 76.7015ZM384.054 71.0744C384.271 71.1072 384.483 71.1645 384.687 71.2451C385.303 71.4977 385.799 71.9756 386.076 72.5814C386.352 73.1873 386.387 73.8756 386.173 74.5063C385.96 75.137 385.514 75.6626 384.926 75.9761C384.339 76.2896 383.654 76.3676 383.011 76.194C382.369 76.0205 381.816 75.6085 381.466 75.0419C381.117 74.4753 380.996 73.7968 381.129 73.1444C381.262 72.492 381.638 71.9147 382.182 71.5302C382.725 71.1456 383.395 70.9826 384.054 71.0744Z" fill="#455A64"/>
<path d="M376.682 74.9755C377.839 75.0704 378.99 73.9703 379.306 72.4465C379.47 71.7057 379.399 70.9325 379.104 70.2336C378.991 69.9312 378.803 69.6627 378.557 69.4534C378.311 69.2442 378.016 69.1011 377.699 69.0378C377.383 68.9745 377.055 68.993 376.748 69.0916C376.44 69.1903 376.163 69.3657 375.943 69.6013C375.397 70.1302 375.028 70.8148 374.887 71.5613C374.558 73.1989 375.279 74.7226 376.505 74.9882L376.682 74.9755ZM377.46 69.3611H377.612C377.864 69.4253 378.097 69.5489 378.292 69.7216C378.487 69.8943 378.637 70.111 378.731 70.3537C378.997 70.9716 379.059 71.6582 378.908 72.3137C378.623 73.7363 377.574 74.7353 376.562 74.5266C375.551 74.318 374.982 73.0029 375.266 71.574C375.389 70.914 375.713 70.3085 376.196 69.8416C376.363 69.6752 376.565 69.5464 376.786 69.4635C377.007 69.3807 377.243 69.3458 377.479 69.3611H377.46Z" fill="#455A64"/>
<path d="M380.9 72.9205L381.229 72.6865C380.881 72.1997 379.964 71.422 379.06 72.0164L379.275 72.3578C380.097 71.833 380.868 72.8825 380.9 72.9205Z" fill="#455A64"/>
<path d="M393.842 77.0169L394.234 76.9284C394.196 76.7387 393.791 75.1138 392.969 74.7471C392.147 74.3804 386.773 73.5584 386.539 73.5205L386.476 73.9252C388.031 74.1654 392.198 74.8546 392.799 75.1201C393.399 75.3857 393.753 76.5743 393.842 77.0169Z" fill="#455A64"/>
<path d="M388.91 75.304C388.91 75.304 391.585 72.2755 392.988 73.2682C394.392 74.2608 392.116 78.8257 390.289 79.281C390.058 79.3555 389.815 79.3826 389.574 79.3609C389.333 79.3391 389.099 79.2688 388.886 79.1542C388.673 79.0396 388.485 78.8832 388.334 78.6941C388.183 78.5051 388.071 78.2875 388.006 78.0544L388.91 75.304Z" fill="#F7A9A0"/>
<path d="M392.299 74.5575V74.6081C391.035 74.9685 390.238 76.0306 389.65 77.1371C389.736 77.0222 389.845 76.9273 389.971 76.8588C390.097 76.7903 390.236 76.7498 390.379 76.7402C390.522 76.7306 390.665 76.752 390.799 76.8031C390.933 76.8541 391.054 76.9336 391.155 77.0359C391.155 77.0359 391.155 77.1118 391.11 77.0992C390.901 77.0012 390.665 76.9722 390.438 77.0165C390.211 77.0608 390.003 77.1761 389.846 77.3457C389.581 77.6211 389.35 77.9267 389.157 78.2562C389.087 78.3574 388.891 78.2562 388.948 78.155C389.138 76.5807 390.592 74.5259 392.299 74.5575Z" fill="#263238"/>
<path d="M390.472 91.0532C390.598 92.3177 390.763 93.5317 390.908 94.7646C391.053 95.9975 391.237 97.2367 391.401 98.4696L391.641 98.2104C390.756 98.1345 389.865 98.046 388.98 97.9891L386.318 97.7994L385.825 97.7615L386.033 98.2104C386.855 99.9554 387.658 101.7 388.512 103.433L388.632 103.035C386.52 104.248 384.389 105.431 382.309 106.676C380.229 107.922 378.105 109.148 376.037 110.47C378.219 109.376 380.375 108.244 382.524 107.094C384.674 105.943 386.805 104.767 388.942 103.597L389.188 103.464L389.068 103.205C388.265 101.454 387.412 99.7278 386.571 97.9954L386.293 98.4064L388.954 98.5645C389.846 98.6214 390.737 98.6467 391.622 98.6909H391.913L391.863 98.4127C391.641 97.1861 391.433 95.9596 391.23 94.7393C391.028 93.519 390.725 92.2672 390.472 91.0532Z" fill="#263238"/>
<path d="M378.718 89.7886C378.326 90.2501 377.947 90.718 377.568 91.1922C377.188 91.6664 376.803 92.1279 376.436 92.6085L374.204 95.4726L373.926 95.833L374.387 95.8962L376.98 96.2566L376.834 95.7192C375.728 96.579 374.621 97.4389 373.527 98.3178L373.382 98.4379L373.414 98.6212C373.806 100.594 374.227 102.564 374.678 104.533C375.108 106.506 375.557 108.472 376.05 110.426C375.772 108.428 375.456 106.436 375.114 104.451C374.773 102.465 374.425 100.48 374.046 98.5011L373.938 98.8046C375.045 97.9447 376.139 97.0659 377.232 96.1934L377.808 95.7381L377.081 95.6559L374.482 95.3651L374.665 95.7887L376.682 92.8171C377.03 92.3239 377.359 91.8118 377.694 91.3123C378.029 90.8128 378.396 90.3007 378.718 89.7886Z" fill="#263238"/>
<path d="M370.537 98.261L376.094 132.738L381.456 132.036L377.587 97.3379L370.537 98.261Z" fill="#263238"/>
<path d="M372.724 87.5826C373.458 87.4858 374.203 87.5344 374.918 87.7257C375.633 87.917 376.303 88.2473 376.89 88.6976C377.477 89.1479 377.97 89.7095 378.34 90.3503C378.71 90.9911 378.95 91.6985 379.047 92.4321L379.3 94.3668C379.39 95.0535 379.343 95.751 379.163 96.4198C378.983 97.0885 378.673 97.7152 378.251 98.2641C377.829 98.8131 377.303 99.2735 376.703 99.6191C376.103 99.9647 375.441 100.189 374.754 100.278L374.046 100.373C373.359 100.463 372.662 100.417 371.993 100.237C371.324 100.057 370.697 99.7468 370.148 99.3247C369.599 98.9025 369.139 98.3764 368.793 97.7763C368.448 97.1763 368.224 96.514 368.134 95.8273L367.881 93.8989C367.784 93.1662 367.833 92.4215 368.024 91.7075C368.215 90.9934 368.545 90.324 368.994 89.7375C369.444 89.1509 370.005 88.6588 370.645 88.289C371.285 87.9193 371.992 87.6793 372.724 87.5826Z" fill="#A6A6A6"/>
<path d="M367.583 94.5928L379.456 93.0381L379.616 94.2543L367.742 95.809L367.583 94.5928Z" fill="#C7C7C7"/>
<path d="M367.957 100.162L380.297 98.3394L382.041 110.148L369.7 111.971L367.957 100.162Z" fill="#263238"/>
<path d="M377.062 102.8C377.362 103.328 377.576 103.9 377.694 104.495L379.211 104.267V104.223C379.211 104.185 379.211 104.147 379.211 104.109C379.159 103.905 379.094 103.704 379.015 103.509C378.882 103.191 378.717 102.888 378.522 102.604H378.484L377.074 102.819L377.062 102.8Z" fill="white"/>
<path d="M377.707 106.709L379.104 106.494C379.217 106.126 379.281 105.746 379.294 105.362C379.306 105.177 379.306 104.991 379.294 104.805V104.742L377.789 104.97C377.789 104.97 377.789 104.97 377.789 105.001C377.789 105.128 377.789 105.254 377.82 105.381C377.852 105.507 377.82 105.785 377.82 105.981C377.803 106.226 377.769 106.469 377.719 106.709H377.707Z" fill="white"/>
<path d="M371.776 108.068C371.927 108.235 372.09 108.391 372.263 108.535C372.474 108.707 372.701 108.86 372.939 108.991C373.174 109.118 373.419 109.224 373.673 109.307C373.921 109.383 374.175 109.44 374.431 109.477C374.641 109.505 374.852 109.516 375.064 109.509H375.159H375.121C374.65 109.279 374.222 108.968 373.856 108.592C373.644 108.378 373.451 108.146 373.281 107.897C373.275 107.894 373.268 107.893 373.262 107.893C373.255 107.893 373.249 107.894 373.243 107.897L371.808 108.118L371.776 108.068Z" fill="white"/>
<path d="M372.807 105.241L374.786 104.963L374.52 103.212L372.978 103.446C372.882 103.797 372.827 104.157 372.813 104.521C372.813 104.71 372.813 104.9 372.813 105.09C372.8 105.14 372.8 105.185 372.807 105.241Z" fill="white"/>
<path d="M372.889 105.702C372.886 105.744 372.886 105.787 372.889 105.829C372.889 105.924 372.933 106.018 372.959 106.113C372.984 106.208 373.041 106.379 373.091 106.505C373.194 106.789 373.323 107.062 373.477 107.321C373.477 107.321 373.477 107.321 373.521 107.321L375.096 107.081L374.843 105.386L372.889 105.702Z" fill="white"/>
<path d="M374.995 103.13L375.26 104.881L377.22 104.584C377.22 104.539 377.22 104.495 377.22 104.451C377.22 104.407 377.176 104.261 377.144 104.166C377.113 104.072 377.049 103.876 376.992 103.73C376.884 103.445 376.746 103.172 376.582 102.915C376.582 102.915 376.582 102.915 376.544 102.915L375.051 103.142L374.995 103.13Z" fill="white"/>
<path d="M375.336 105.355L375.582 107.005L377.119 106.778C377.127 106.776 377.134 106.773 377.14 106.767C377.145 106.761 377.149 106.754 377.15 106.746C377.226 106.444 377.27 106.134 377.283 105.823C377.283 105.665 377.283 105.501 377.283 105.342C377.283 105.184 377.283 105.134 377.283 105.026L375.386 105.317C375.386 105.317 375.329 105.336 375.336 105.355Z" fill="white"/>
<path d="M370.682 105.596L372.326 105.349C372.266 104.74 372.304 104.125 372.44 103.528L370.935 103.756C370.935 103.756 370.935 103.756 370.904 103.756C370.778 104.13 370.706 104.519 370.689 104.913C370.676 105.124 370.676 105.335 370.689 105.545L370.682 105.596Z" fill="white"/>
<path d="M370.752 106.012C370.752 106.054 370.752 106.092 370.752 106.126C370.752 106.278 370.828 106.417 370.872 106.562C370.986 106.893 371.139 107.209 371.327 107.504L371.416 107.643C371.416 107.643 371.416 107.643 371.447 107.643L372.952 107.416L372.87 107.27C372.743 107.022 372.635 106.764 372.548 106.499C372.482 106.309 372.43 106.115 372.39 105.917C372.377 105.872 372.366 105.825 372.358 105.778L370.752 106.012Z" fill="white"/>
<path d="M371.093 103.249L372.529 103.028C372.533 103.031 372.539 103.032 372.544 103.032C372.55 103.032 372.555 103.031 372.56 103.028C372.693 102.618 372.878 102.227 373.11 101.865C373.25 101.656 373.407 101.46 373.578 101.277L373.85 101.017V100.986C373.355 101.114 372.886 101.328 372.465 101.618C371.877 102.037 371.405 102.598 371.093 103.249Z" fill="white"/>
<path d="M376.221 109.344H376.265C376.421 109.3 376.573 109.245 376.72 109.18C376.998 109.066 377.261 108.919 377.504 108.743C377.787 108.549 378.044 108.319 378.269 108.061C378.433 107.879 378.579 107.682 378.706 107.473C378.8 107.314 378.884 107.149 378.959 106.979L377.618 107.182C377.525 107.484 377.402 107.776 377.252 108.054C377.112 108.31 376.951 108.553 376.771 108.781C376.624 108.972 376.461 109.149 376.284 109.313L376.221 109.344Z" fill="white"/>
<path d="M374.95 100.815L375.171 100.935C375.434 101.08 375.682 101.249 375.911 101.441C376.226 101.69 376.505 101.981 376.739 102.307L376.784 102.371H376.853L378.162 102.175C377.751 101.73 377.25 101.377 376.694 101.139C376.137 100.9 375.537 100.781 374.931 100.79L374.95 100.815Z" fill="white"/>
<path d="M373.799 107.764C374.032 108.06 374.3 108.327 374.596 108.56C374.859 108.768 375.146 108.944 375.45 109.085L375.216 107.549L373.799 107.764Z" fill="white"/>
<path d="M375.658 107.492L375.886 108.997C376.392 108.522 376.78 107.935 377.018 107.283L375.658 107.492Z" fill="white"/>
<path d="M373.116 102.94L374.476 102.731L374.255 101.296C374.015 101.521 373.803 101.773 373.622 102.048C373.421 102.326 373.252 102.625 373.116 102.94Z" fill="white"/>
<path d="M374.716 101.271L374.931 102.674L376.234 102.478C375.83 101.962 375.31 101.548 374.716 101.271Z" fill="white"/>
<path d="M421.788 133.687C417.735 136.216 409.142 134.363 390.51 130.526C387.937 129.994 388.24 110.508 391.022 110.926C394.518 111.463 407.979 114.302 408.94 114.637C417.02 117.444 424.532 131.948 421.788 133.687Z" fill="#F7A9A0"/>
<path d="M367.932 107.631C367.639 108.177 367.52 108.799 367.591 109.414C367.662 110.029 367.92 110.607 368.33 111.071C367.398 111.558 366.666 112.357 366.263 113.328C365.631 115.067 368.09 116.818 368.09 116.818C367.232 117.525 366.606 118.475 366.295 119.543C365.865 121.269 368.084 123.387 368.084 123.387C367.654 124.474 367.629 125.679 368.014 126.782C369.165 129.685 373.85 130.576 376.822 131.126C379.793 131.676 388.778 130.57 390.51 130.525L394.386 111.469C394.386 111.469 381.791 105.071 378.2 104.887C375.184 104.729 369.133 105.595 367.932 107.631Z" fill="#F7A9A0"/>
<path d="M368.52 110.792C371.782 110.16 375.039 110.577 378.32 110.792C378.335 110.792 378.349 110.798 378.36 110.809C378.371 110.819 378.377 110.834 378.377 110.849C378.377 110.864 378.371 110.879 378.36 110.889C378.349 110.9 378.335 110.906 378.32 110.906C375.064 110.666 371.801 111.07 368.545 110.963C368.463 110.944 368.431 110.805 368.52 110.792Z" fill="#263238"/>
<path d="M368.204 116.577C368.957 116.513 369.716 116.547 370.461 116.679C371.258 116.767 372.048 116.875 372.845 116.988C374.432 117.222 376.006 117.488 377.58 117.804C377.65 117.804 377.65 117.924 377.58 117.918C376 117.69 374.419 117.482 372.826 117.324C372.029 117.239 371.232 117.163 370.436 117.096C369.681 117.08 368.93 116.98 368.198 116.799C368.173 116.792 368.151 116.777 368.136 116.757C368.121 116.736 368.113 116.711 368.113 116.686C368.114 116.66 368.123 116.635 368.14 116.616C368.156 116.596 368.179 116.583 368.204 116.577Z" fill="#263238"/>
<path d="M368.153 123.393C368.836 123.344 369.523 123.412 370.183 123.595L372.345 123.943C373.787 124.17 375.234 124.392 376.682 124.575C376.752 124.575 376.746 124.695 376.682 124.689C375.203 124.518 373.73 124.366 372.257 124.183C371.529 124.095 370.809 124 370.088 123.899C369.421 123.874 368.764 123.73 368.147 123.475C368.139 123.471 368.132 123.465 368.128 123.457C368.123 123.449 368.121 123.441 368.122 123.432C368.123 123.423 368.126 123.414 368.132 123.407C368.137 123.4 368.145 123.395 368.153 123.393Z" fill="#263238"/>
<path d="M393.286 110.564L401.296 134.047C401.296 134.047 417.994 136.936 421.87 133.971C424.399 132.017 417.299 116.83 408.137 114.421L393.286 110.564Z" fill="#37474F"/>
<path d="M417.324 121.478C415.622 119.026 413.433 116.951 410.894 115.383C407.53 113.347 395.599 110.957 393.311 110.527C393.266 110.527 393.235 110.59 393.311 110.603C395.157 111.146 407.853 114.068 410.742 115.781C413.183 117.384 415.39 119.318 417.299 121.528C417.292 121.566 417.349 121.522 417.324 121.478Z" fill="#263238"/>
<path d="M406.594 132.953C405.848 130.367 404.963 127.825 404.065 125.283C403.168 122.742 402.282 120.225 401.328 117.696C400.79 116.274 400.259 114.845 399.665 113.441C399.665 113.403 399.589 113.441 399.595 113.441C400.341 116.027 401.22 118.575 402.124 121.117C403.028 123.658 403.901 126.175 404.824 128.704C405.349 130.133 405.899 131.555 406.487 132.959C406.493 133.06 406.613 133.029 406.594 132.953Z" fill="#263238"/>
<path d="M404.856 134.559C403.686 134.256 402.497 134.091 401.328 133.927L401.423 134.016C401.239 133.554 401.05 133.099 400.822 132.656C400.912 133.143 401.028 133.624 401.17 134.098V134.167H401.252C402.425 134.45 403.63 134.581 404.837 134.559H404.856Z" fill="#263238"/>
<path d="M27.6202 28.9433C27.6199 31.9435 28.4532 34.8848 30.0273 37.439C31.6014 39.9932 33.8543 42.0597 36.5345 43.4079C39.2148 44.7561 42.217 45.333 45.2061 45.0742C48.1951 44.8153 51.0535 43.731 53.4621 41.9421L61.4157 43.9676L58.114 36.5482C59.2647 34.3768 59.906 31.972 59.9893 29.516C60.0725 27.06 59.5956 24.6173 58.5946 22.373C57.5936 20.1287 56.0948 18.1418 54.2119 16.5628C52.3289 14.9837 50.1112 13.8541 47.7268 13.2594C45.3425 12.6648 42.854 12.6208 40.4501 13.1307C38.0462 13.6406 35.7899 14.6911 33.8523 16.2025C31.9147 17.7139 30.3465 19.6466 29.2668 21.8541C28.187 24.0615 27.6239 26.4859 27.6202 28.9433Z" fill="#263238"/>
<path d="M27.6202 28.9435C27.642 31.9379 28.492 34.8679 30.0761 37.4091C30.4665 38.0423 30.8978 38.6495 31.367 39.2269C31.8495 39.791 32.3675 40.3238 32.9177 40.822C34.0077 41.8318 35.2432 42.6722 36.5829 43.315C38.5742 44.3144 40.759 44.8688 42.9858 44.9398C43.7277 44.9839 44.4717 44.9715 45.2117 44.9027C48.1546 44.6163 50.9599 43.5168 53.3137 41.7272L53.4175 41.653H53.5437L61.475 43.634L61.0966 44.0866L57.7653 36.7117L57.6911 36.5559L57.7727 36.4001C58.8977 34.28 59.534 31.935 59.635 29.5371C59.7316 27.1301 59.28 24.7326 58.3144 22.5257C57.3298 20.3241 55.8794 18.3623 54.063 16.7757C52.2213 15.1982 50.0442 14.0615 47.6972 13.4517C45.3442 12.8317 42.8816 12.7505 40.4929 13.2143C38.1011 13.7013 35.8479 14.7151 33.8971 16.1821C31.9517 17.6941 30.3758 19.6288 29.2883 21.8396C28.2009 24.0505 27.6305 26.4797 27.6202 28.9435ZM27.6202 28.9435C27.628 26.4861 28.1904 24.0622 29.2657 21.8526C30.341 19.6429 31.9013 17.7046 33.8303 16.1821C36.769 13.8583 40.4151 12.6115 44.1614 12.6493C47.9077 12.6871 51.5279 14.0072 54.4192 16.3898C56.3464 18.0039 57.8835 20.0331 58.9153 22.3254C59.9449 24.6187 60.4342 27.1178 60.3455 29.63C60.2567 32.1423 59.5923 34.6006 58.4034 36.8155V36.5039L61.6754 43.9234L61.9499 44.5466L61.297 44.3685L53.3804 42.2911L53.603 42.2466C51.1476 44.0373 48.2419 45.1086 45.2117 45.3405C44.471 45.4019 43.7265 45.4019 42.9858 45.3405C39.2067 45.1147 35.6249 43.577 32.8583 40.9927C32.3085 40.4885 31.7929 39.9482 31.3151 39.3752C30.8464 38.794 30.4176 38.1817 30.0315 37.5426C28.444 34.9562 27.609 31.9783 27.6202 28.9435Z" fill="#263238"/>
<path d="M37.5102 29.6194C37.5102 29.9011 37.4266 30.1765 37.2701 30.4108C37.1136 30.645 36.8911 30.8276 36.6308 30.9354C36.3705 31.0433 36.0841 31.0715 35.8078 31.0165C35.5314 30.9615 35.2776 30.8259 35.0784 30.6266C34.8791 30.4274 34.7435 30.1736 34.6885 29.8973C34.6335 29.6209 34.6618 29.3345 34.7696 29.0742C34.8774 28.8139 35.06 28.5914 35.2942 28.4349C35.5285 28.2784 35.8039 28.1948 36.0857 28.1948C36.2727 28.1948 36.458 28.2317 36.6308 28.3033C36.8036 28.3748 36.9607 28.4798 37.093 28.6121C37.2252 28.7443 37.3302 28.9014 37.4018 29.0742C37.4733 29.247 37.5102 29.4323 37.5102 29.6194Z" fill="#263238"/>
<path d="M44.9816 29.6194C44.9816 29.9014 44.8979 30.1771 44.741 30.4116C44.5842 30.646 44.3612 30.8286 44.1005 30.9362C43.8398 31.0438 43.553 31.0715 43.2764 31.016C42.9999 30.9604 42.7461 30.824 42.5472 30.624C42.3483 30.4241 42.2132 30.1695 42.159 29.8927C42.1049 29.6159 42.1342 29.3292 42.2431 29.0691C42.3521 28.8089 42.5358 28.5869 42.7711 28.4313C43.0063 28.2757 43.2825 28.1934 43.5645 28.1948C43.7512 28.1948 43.9361 28.2317 44.1085 28.3034C44.281 28.3751 44.4375 28.4801 44.5692 28.6125C44.7009 28.7449 44.8051 28.902 44.8759 29.0748C44.9467 29.2476 44.9826 29.4327 44.9816 29.6194Z" fill="#263238"/>
<path d="M52.4606 29.6194C52.4606 29.9008 52.3773 30.1759 52.2211 30.41C52.0649 30.6441 51.8428 30.8267 51.5829 30.9347C51.3231 31.0428 51.037 31.0714 50.7609 31.017C50.4848 30.9627 50.2309 30.8277 50.0314 30.6293C49.8319 30.4308 49.6957 30.1776 49.6399 29.9018C49.5841 29.626 49.6112 29.3398 49.7179 29.0793C49.8246 28.8189 50.006 28.5959 50.2393 28.4385C50.4726 28.2811 50.7473 28.1963 51.0287 28.1948C51.2164 28.1939 51.4024 28.23 51.5761 28.3011C51.7498 28.3723 51.9077 28.4771 52.0408 28.6094C52.1738 28.7418 52.2794 28.8992 52.3515 29.0725C52.4235 29.2458 52.4606 29.4317 52.4606 29.6194Z" fill="#263238"/>
<path d="M278.493 126.071C277.384 127.71 276.785 129.641 276.772 131.62C276.772 138.661 284.503 144.367 294.029 144.367C303.556 144.367 311.28 138.661 311.28 131.62C311.28 124.579 303.563 118.881 294.029 118.881C289.805 118.817 285.663 120.047 282.158 122.406L276.223 120.922L278.493 126.071Z" fill="#FFFEFD"/>
<path d="M278.493 126.072C277.479 127.64 276.917 129.458 276.868 131.325C276.858 133.183 277.372 135.006 278.352 136.585C280.398 139.69 283.488 141.962 287.062 142.988C290.591 144.099 294.335 144.341 297.976 143.693C299.792 143.394 301.556 142.837 303.215 142.038C304.864 141.258 306.369 140.204 307.666 138.922C308.967 137.655 309.937 136.088 310.493 134.359C311.04 132.637 311.066 130.791 310.567 129.054C310.032 127.318 309.086 125.737 307.807 124.447C306.514 123.143 305.009 122.069 303.356 121.271C301.711 120.467 299.963 119.895 298.162 119.572C296.351 119.224 294.505 119.097 292.664 119.194C288.959 119.336 285.366 120.497 282.277 122.547L282.21 122.592H282.136L276.2 121.004L276.304 120.878L278.493 126.072ZM278.493 126.072L276.111 120.93L276.037 120.767L276.215 120.811L282.151 122.243H282.01C285.136 120.087 288.798 118.839 292.59 118.637C296.383 118.354 300.185 119.051 303.63 120.663C305.354 121.483 306.923 122.595 308.267 123.95C309.639 125.311 310.658 126.987 311.235 128.832C311.789 130.703 311.771 132.698 311.183 134.56C310.578 136.394 309.539 138.056 308.156 139.404C306.789 140.737 305.206 141.828 303.474 142.632C301.756 143.443 299.933 144.009 298.058 144.316C296.194 144.634 294.298 144.726 292.412 144.591C290.525 144.443 288.664 144.064 286.87 143.463C285.071 142.87 283.376 141.999 281.847 140.881C280.301 139.777 279.005 138.362 278.04 136.726C277.092 135.077 276.624 133.196 276.69 131.295C276.792 129.42 277.416 127.61 278.493 126.072Z" fill="#263238"/>
<path d="M300.232 131.621C300.234 131.268 300.34 130.923 300.537 130.63C300.734 130.337 301.014 130.109 301.341 129.974C301.668 129.84 302.027 129.806 302.374 129.876C302.72 129.945 303.038 130.116 303.287 130.367C303.536 130.617 303.706 130.936 303.774 131.282C303.843 131.629 303.807 131.988 303.671 132.314C303.536 132.641 303.307 132.92 303.013 133.116C302.719 133.312 302.373 133.417 302.02 133.417C301.785 133.417 301.552 133.37 301.334 133.28C301.117 133.189 300.919 133.057 300.753 132.89C300.587 132.723 300.455 132.525 300.366 132.308C300.277 132.09 300.231 131.856 300.232 131.621Z" fill="#263238"/>
<path d="M292.234 131.621C292.234 131.266 292.339 130.918 292.536 130.623C292.734 130.328 293.014 130.098 293.342 129.962C293.67 129.826 294.031 129.79 294.38 129.86C294.728 129.929 295.048 130.1 295.299 130.351C295.55 130.602 295.721 130.922 295.79 131.27C295.86 131.619 295.824 131.98 295.688 132.308C295.552 132.636 295.322 132.916 295.027 133.114C294.732 133.311 294.384 133.416 294.029 133.416C293.793 133.417 293.559 133.371 293.341 133.282C293.123 133.192 292.924 133.059 292.757 132.892C292.591 132.726 292.458 132.527 292.368 132.309C292.279 132.091 292.233 131.857 292.234 131.621Z" fill="#263238"/>
<path d="M284.273 131.621C284.274 131.268 284.381 130.923 284.578 130.63C284.775 130.337 285.055 130.109 285.382 129.974C285.709 129.84 286.068 129.806 286.414 129.876C286.761 129.945 287.079 130.116 287.328 130.367C287.577 130.617 287.747 130.936 287.815 131.282C287.884 131.629 287.848 131.988 287.712 132.314C287.577 132.641 287.348 132.92 287.054 133.116C286.76 133.312 286.414 133.417 286.061 133.417C285.826 133.417 285.592 133.37 285.375 133.28C285.158 133.189 284.96 133.057 284.794 132.89C284.628 132.723 284.496 132.525 284.407 132.308C284.318 132.09 284.272 131.856 284.273 131.621Z" fill="#263238"/>
<path d="M96.7622 115.705L92.8535 112.186L113.391 89.3768L117.299 92.8961L96.7622 115.705Z" fill="#C7C7C7"/>
<path d="M87.3246 128.2L81.4135 122.878L95.7561 106.947L101.667 112.269L87.3246 128.2Z" fill="#263238"/>
<path d="M135.009 97.9538C139.658 97.0358 143.931 94.7597 147.287 91.4135C150.642 88.0672 152.931 83.8011 153.862 79.1544C154.794 74.5077 154.326 69.6891 152.519 65.308C150.712 60.9268 147.647 57.1798 143.711 54.5408C139.774 51.9017 135.144 50.4891 130.405 50.4815C125.666 50.4739 121.031 51.8717 117.086 54.4981C113.141 57.1246 110.064 60.8617 108.243 65.2371C106.422 69.6124 105.939 74.4294 106.856 79.0791C108.091 85.3127 111.749 90.8014 117.028 94.3402C122.306 97.879 128.773 99.1787 135.009 97.9538ZM134.476 95.2622C130.358 96.0745 126.093 95.6476 122.218 94.0355C118.343 92.4234 115.033 89.6984 112.707 86.2052C110.381 82.712 109.143 78.6075 109.15 74.4107C109.156 70.2139 110.407 66.1133 112.744 62.6275C115.082 59.1416 118.4 56.4272 122.28 54.8273C126.16 53.2275 130.427 52.8141 134.542 53.6395C138.657 54.4649 142.434 56.4919 145.397 59.4643C148.36 62.4367 150.375 66.2209 151.187 70.3384C152.269 75.8588 151.118 81.5832 147.985 86.2556C144.852 90.9281 139.994 94.1671 134.476 95.2622Z" fill="#37474F"/>
<path d="M106.399 68.5503C104.9 74.5697 105.712 80.9322 108.674 86.3823C111.637 91.8325 116.534 95.9743 122.4 97.9905C128.267 100.007 134.676 99.7509 140.363 97.2735C146.05 94.796 150.601 90.277 153.12 84.608C155.638 78.9391 155.94 72.5321 153.966 66.6514C151.992 60.7707 147.886 55.8435 142.457 52.842C137.029 49.8405 130.672 48.9829 124.642 50.4383C118.612 51.8937 113.347 55.5564 109.885 60.7037C108.272 63.0944 107.092 65.7505 106.399 68.5503ZM152.956 79.9922C151.591 85.5583 148.219 90.4245 143.487 93.6575C138.754 96.8904 132.995 98.2624 127.314 97.5104C121.632 96.7583 116.428 93.9351 112.7 89.5823C108.972 85.2295 106.982 79.6536 107.113 73.9239C107.243 68.1943 109.484 62.7145 113.406 58.5354C117.327 54.3564 122.654 51.7724 128.364 51.2792C134.074 50.7859 139.765 52.418 144.345 55.8625C148.926 59.307 152.073 64.3213 153.184 69.9437C153.841 73.2698 153.763 76.6993 152.956 79.9922ZM109.067 69.2066C108.189 72.787 108.227 76.5308 109.178 80.0925C110.129 83.6541 111.963 86.9188 114.508 89.585C117.054 92.2512 120.231 94.233 123.745 95.3474C127.259 96.4618 130.997 96.6729 134.614 95.9612C138.154 95.2657 141.468 93.7075 144.262 91.4248C147.056 89.142 149.244 86.2052 150.631 82.8747C152.019 79.5442 152.563 75.9228 152.217 72.3315C151.87 68.7402 150.642 65.29 148.643 62.2866C146.644 59.2832 143.934 56.8194 140.755 55.1136C137.576 53.4078 134.025 52.5127 130.417 52.5076C126.809 52.5025 123.255 53.3876 120.071 55.0843C116.887 56.7811 114.171 59.2372 112.163 62.235C110.733 64.3612 109.686 66.7204 109.067 69.2066ZM134.338 94.5584C129.678 95.4832 124.842 94.7634 120.653 92.5215C116.465 90.2796 113.183 86.6544 111.369 82.264C109.554 77.8735 109.318 72.9896 110.701 68.4446C112.084 63.8996 115.001 59.975 118.953 57.3398C122.906 54.7046 127.651 53.5218 132.378 53.9931C137.105 54.4645 141.523 56.5608 144.878 59.9246C148.232 63.2885 150.316 67.7117 150.775 72.4402C151.233 77.1688 150.038 81.91 147.392 85.8557C144.364 90.3704 139.67 93.5001 134.338 94.5584Z" fill="#37474F"/>
<g opacity="0.2">
<path d="M150.73 73.3773C150.94 77.4036 149.951 81.4018 147.889 84.8663C145.827 88.3307 142.783 91.1059 139.144 92.841C135.505 94.576 131.432 95.193 127.442 94.6138C123.452 94.0347 119.724 92.2855 116.728 89.5874C113.732 86.8893 111.603 83.3635 110.611 79.4557C109.619 75.5479 109.807 71.4336 111.153 67.633C112.499 63.8325 114.941 60.5163 118.172 58.1038C121.402 55.6913 125.275 54.2907 129.302 54.0793C131.976 53.9389 134.652 54.3267 137.176 55.2206C139.7 56.1145 142.024 57.497 144.014 59.2891C146.004 61.0812 147.621 63.2477 148.773 65.665C149.926 68.0823 150.591 70.703 150.73 73.3773Z" fill="white"/>
<path d="M150.217 79.1226C148.98 84.3545 145.729 88.8873 141.171 91.7366C136.612 94.5859 131.113 95.5215 125.868 94.3403L150.217 79.1226Z" fill="#EBEBEB"/>
<path d="M144.206 59.4478L110.85 80.2818C110.389 78.7347 110.113 77.1384 110.028 75.5263C109.927 73.6712 110.087 71.8111 110.503 70.0004L135.127 54.6162C138.517 55.4241 141.642 57.0876 144.206 59.4478Z" fill="#EBEBEB"/>
<path d="M150.521 71.3507L118.749 91.1956C117.651 90.4327 116.63 89.5647 115.701 88.6038L149.532 67.4702C149.992 68.7269 150.323 70.0271 150.521 71.3507Z" fill="#EBEBEB"/>
<path d="M146.108 61.4791L111.82 82.879C111.716 82.6555 111.616 82.4035 111.521 82.199L145.632 60.918C145.784 61.0892 145.951 61.2841 146.108 61.4791Z" fill="#EBEBEB"/>
<path d="M128.279 54.1602L113.062 63.6712C113.38 63.1529 113.732 62.6488 114.098 62.159L126.463 54.4265C127.086 54.3076 127.671 54.2172 128.279 54.1602Z" fill="#EBEBEB"/>
</g>
<path d="M134.457 90.3879C136.648 89.8963 138.715 88.9591 140.529 87.6344C141.454 86.9753 142.311 86.2266 143.088 85.3993C143.861 84.5591 144.553 83.6484 145.157 82.6792C146.332 80.7159 147.079 78.5265 147.349 76.2544C147.607 74.0236 147.438 71.764 146.85 69.5967C146.873 71.7674 146.672 73.9347 146.25 76.0642C146.024 77.1015 145.715 78.1192 145.328 79.1078C144.956 80.0923 144.489 81.0383 143.934 81.9325C142.83 83.7442 141.45 85.3727 139.845 86.7594C138.2 88.1793 136.391 89.3974 134.457 90.3879Z" fill="white"/>
</svg>
